<?xml version="1.0" encoding="UTF-8" standalone="no"?>
<svg
   xmlns:dc="http://purl.org/dc/elements/1.1/"
   xmlns:cc="http://creativecommons.org/ns#"
   xmlns:rdf="http://www.w3.org/1999/02/22-rdf-syntax-ns#"
   xmlns:svg="http://www.w3.org/2000/svg"
   xmlns="http://www.w3.org/2000/svg"
   xmlns:sodipodi="http://sodipodi.sourceforge.net/DTD/sodipodi-0.dtd"
   xmlns:inkscape="http://www.inkscape.org/namespaces/inkscape"
   version="1.1"
   width="62.534538mm"
   height="27.573509mm"
   viewBox="0 0 6253.4541 2757.3509"
   preserveAspectRatio="xMidYMid"
   clip-path="url(#presentation_clip_path)"
   xml:space="preserve"
   id="svg97"
   sodipodi:docname="gdpr.svg"
   style="fill-rule:evenodd;stroke-width:28.22200012;stroke-linejoin:round"
   inkscape:version="0.92.4 (5da689c313, 2019-01-14)"><metadata
   id="metadata101"><rdf:RDF><cc:Work
       rdf:about=""><dc:format>image/svg+xml</dc:format><dc:type
         rdf:resource="http://purl.org/dc/dcmitype/StillImage" /><dc:title /></cc:Work></rdf:RDF></metadata><sodipodi:namedview
   pagecolor="#ffffff"
   bordercolor="#666666"
   borderopacity="1"
   objecttolerance="10"
   gridtolerance="10"
   guidetolerance="10"
   inkscape:pageopacity="0"
   inkscape:pageshadow="2"
   inkscape:window-width="1920"
   inkscape:window-height="986"
   id="namedview99"
   showgrid="false"
   inkscape:zoom="1.7373637"
   inkscape:cx="149.8081"
   inkscape:cy="79.30147"
   inkscape:window-x="-11"
   inkscape:window-y="-11"
   inkscape:window-maximized="1"
   inkscape:current-layer="svg97" />
 <defs
   class="ClipPathGroup"
   id="defs5">
  <clipPath
   id="presentation_clip_path"
   clipPathUnits="userSpaceOnUse">
   <rect
   x="0"
   y="0"
   width="29702"
   height="20331"
   id="rect2" />
  </clipPath>
 <clipPath
   clipPathUnits="userSpaceOnUse"
   id="clipPath897"><rect
     style="opacity:1;fill:#f8f9ff;fill-opacity:1;stroke:none;stroke-width:50;stroke-linejoin:round;stroke-miterlimit:4;stroke-dasharray:none;stroke-opacity:0.9353448;paint-order:markers fill stroke"
     id="rect899"
     width="9431.1494"
     height="2917.1008"
     x="2070.9348"
     y="236.58565" /></clipPath><clipPath
   clipPathUnits="userSpaceOnUse"
   id="clipPath901"><rect
     style="opacity:1;fill:#f8f9ff;fill-opacity:1;stroke:none;stroke-width:50;stroke-linejoin:round;stroke-miterlimit:4;stroke-dasharray:none;stroke-opacity:0.9353448;paint-order:markers fill stroke"
     id="rect903"
     width="9431.1494"
     height="2917.1008"
     x="2070.9348"
     y="236.58565" /></clipPath><clipPath
   clipPathUnits="userSpaceOnUse"
   id="clipPath905"><rect
     style="opacity:1;fill:#f8f9ff;fill-opacity:1;stroke:none;stroke-width:234.43054199;stroke-linejoin:round;stroke-miterlimit:4;stroke-dasharray:none;stroke-opacity:0.9353448;paint-order:markers fill stroke"
     id="rect907"
     width="33771.285"
     height="17908.404"
     x="7416.6528"
     y="1453.4254" /></clipPath><clipPath
   clipPathUnits="userSpaceOnUse"
   id="clipPath909"><rect
     style="opacity:1;fill:#f8f9ff;fill-opacity:1;stroke:none;stroke-width:427.84344482;stroke-linejoin:round;stroke-miterlimit:4;stroke-dasharray:none;stroke-opacity:0.9353448;paint-order:markers fill stroke"
     id="rect911"
     width="64430.961"
     height="31264.479"
     x="13130.046"
     y="4679.8994" /></clipPath><clipPath
   clipPathUnits="userSpaceOnUse"
   id="clipPath949"><rect
     style="opacity:1;fill:#f8f9ff;fill-opacity:1;stroke:none;stroke-width:50.00000381;stroke-linejoin:round;stroke-miterlimit:4;stroke-dasharray:none;stroke-opacity:0.9353448;paint-order:markers fill stroke"
     id="rect951"
     width="6213.4375"
     height="2984.8867"
     x="-91.374077"
     y="196.47815"
     ry="36.889797" /></clipPath><clipPath
   clipPathUnits="userSpaceOnUse"
   id="clipPath953"><rect
     style="opacity:1;fill:#f8f9ff;fill-opacity:1;stroke:none;stroke-width:50.00000381;stroke-linejoin:round;stroke-miterlimit:4;stroke-dasharray:none;stroke-opacity:0.9353448;paint-order:markers fill stroke"
     id="rect955"
     width="6213.4375"
     height="2984.8867"
     x="-91.374077"
     y="196.47815"
     ry="36.889797" /></clipPath><clipPath
   clipPathUnits="userSpaceOnUse"
   id="clipPath957"><rect
     style="opacity:1;fill:#f8f9ff;fill-opacity:1;stroke:none;stroke-width:50.00000381;stroke-linejoin:round;stroke-miterlimit:4;stroke-dasharray:none;stroke-opacity:0.9353448;paint-order:markers fill stroke"
     id="rect959"
     width="6213.4375"
     height="2984.8867"
     x="-91.374077"
     y="196.47815"
     ry="36.889797" /></clipPath><clipPath
   clipPathUnits="userSpaceOnUse"
   id="clipPath961"><rect
     style="opacity:1;fill:#f8f9ff;fill-opacity:1;stroke:none;stroke-width:57.64237595;stroke-linejoin:round;stroke-miterlimit:4;stroke-dasharray:none;stroke-opacity:0.9353448;paint-order:markers fill stroke"
     id="rect963"
     width="9307.8994"
     height="2648.2061"
     x="1934.0537"
     y="410.90204"
     ry="32.728809" /></clipPath><clipPath
   clipPathUnits="userSpaceOnUse"
   id="clipPath965"><rect
     style="opacity:1;fill:#f8f9ff;fill-opacity:1;stroke:none;stroke-width:57.64237595;stroke-linejoin:round;stroke-miterlimit:4;stroke-dasharray:none;stroke-opacity:0.9353448;paint-order:markers fill stroke"
     id="rect967"
     width="9307.8994"
     height="2648.2061"
     x="1934.0537"
     y="410.90204"
     ry="32.728809" /></clipPath><clipPath
   clipPathUnits="userSpaceOnUse"
   id="clipPath969"><rect
     style="opacity:1;fill:#f8f9ff;fill-opacity:1;stroke:none;stroke-width:270.26266479;stroke-linejoin:round;stroke-miterlimit:4;stroke-dasharray:none;stroke-opacity:0.9353448;paint-order:markers fill stroke"
     id="rect971"
     width="33329.949"
     height="16257.628"
     x="6926.5063"
     y="2523.5728"
     ry="200.92575" /></clipPath><clipPath
   clipPathUnits="userSpaceOnUse"
   id="clipPath973"><rect
     style="opacity:1;fill:#f8f9ff;fill-opacity:1;stroke:none;stroke-width:493.23822021;stroke-linejoin:round;stroke-miterlimit:4;stroke-dasharray:none;stroke-opacity:0.9353448;paint-order:markers fill stroke"
     id="rect975"
     width="63588.961"
     height="28382.553"
     x="12194.913"
     y="6548.1611"
     ry="350.776" /></clipPath><clipPath
   clipPathUnits="userSpaceOnUse"
   id="clipPath979"><rect
     style="opacity:1;fill:#f8f9ff;fill-opacity:1;stroke:none;stroke-width:50.00000381;stroke-linejoin:round;stroke-miterlimit:4;stroke-dasharray:none;stroke-opacity:0.9353448;paint-order:markers fill stroke"
     id="rect981"
     width="6061.147"
     height="2665.0774"
     x="60.91605"
     y="257.3942" /></clipPath><clipPath
   clipPathUnits="userSpaceOnUse"
   id="clipPath983"><rect
     style="opacity:1;fill:#f8f9ff;fill-opacity:1;stroke:none;stroke-width:50.00000381;stroke-linejoin:round;stroke-miterlimit:4;stroke-dasharray:none;stroke-opacity:0.9353448;paint-order:markers fill stroke"
     id="rect985"
     width="6061.147"
     height="2665.0774"
     x="60.91605"
     y="257.3942" /></clipPath><clipPath
   clipPathUnits="userSpaceOnUse"
   id="clipPath987"><rect
     style="opacity:1;fill:#f8f9ff;fill-opacity:1;stroke:none;stroke-width:57.64237595;stroke-linejoin:round;stroke-miterlimit:4;stroke-dasharray:none;stroke-opacity:0.9353448;paint-order:markers fill stroke"
     id="rect989"
     width="9079.7646"
     height="2364.4697"
     x="2162.1885"
     y="464.94705" /></clipPath><clipPath
   clipPathUnits="userSpaceOnUse"
   id="clipPath991"><rect
     style="opacity:1;fill:#f8f9ff;fill-opacity:1;stroke:none;stroke-width:57.64237595;stroke-linejoin:round;stroke-miterlimit:4;stroke-dasharray:none;stroke-opacity:0.9353448;paint-order:markers fill stroke"
     id="rect993"
     width="9079.7646"
     height="2364.4697"
     x="2162.1885"
     y="464.94705" /></clipPath><clipPath
   clipPathUnits="userSpaceOnUse"
   id="clipPath995"><rect
     style="opacity:1;fill:#f8f9ff;fill-opacity:1;stroke:none;stroke-width:270.26266479;stroke-linejoin:round;stroke-miterlimit:4;stroke-dasharray:none;stroke-opacity:0.9353448;paint-order:markers fill stroke"
     id="rect997"
     width="32513.039"
     height="14515.739"
     x="7743.417"
     y="2855.3611" /></clipPath><clipPath
   clipPathUnits="userSpaceOnUse"
   id="clipPath999"><rect
     style="opacity:1;fill:#f8f9ff;fill-opacity:1;stroke:none;stroke-width:493.23822021;stroke-linejoin:round;stroke-miterlimit:4;stroke-dasharray:none;stroke-opacity:0.9353448;paint-order:markers fill stroke"
     id="rect1001"
     width="62030.402"
     height="25341.566"
     x="13753.466"
     y="7127.397" /></clipPath></defs>
 <defs
   class="TextShapeIndex"
   id="defs7">
  
 </defs>
 <defs
   class="TextEmbeddedBitmaps"
   id="defs9" />
 <g
   id="g14"
   transform="matrix(0.10109563,0,0,0.10880744,-1390.4155,-775.51378)"
   clip-path="url(#clipPath999)">
  <g
   id="id2"
   class="Master_Slide">
   <g
   id="bg-id2"
   class="Background" />
   <g
   id="bo-id2"
   class="BackgroundObjects" />
  </g>
 </g>
 <g
   class="SlideGroup"
   id="g95"
   transform="matrix(0.19287657,0,0,0.18995594,-1493.5237,-542.3928)"
   clip-path="url(#clipPath995)">
  <g
   id="g93">
   <g
   id="id1"
   class="Slide"
   clip-path="url(#presentation_clip_path)">
    <g
   class="Page"
   id="g90">
     <g
   class="Group"
   id="g88">
      <g
   class="com.sun.star.drawing.RectangleShape"
   id="g19">
       <g
   id="id3">
        <path
   d="M 14852,20331 H 1 V 1 h 29701 v 20330 z"
   id="path16"
   inkscape:connector-curvature="0"
   style="fill:#ffffff;stroke:none" />
       </g>
      </g>
      <g
   class="com.sun.star.drawing.RectangleShape"
   id="g26">
       <g
   id="id4">
        <path
   d="M 15800.242,19835.076 H 1741.2415 V 1089.0763 H 29858.242 V 19835.076 Z"
   id="path21"
   inkscape:connector-curvature="0"
   style="fill:#ffffff;stroke:none" />
        
       </g>
      </g>
      <g
   class="com.sun.star.drawing.PolyPolygonShape"
   id="g31">
       <g
   id="id5">
        <path
   d="m 14851,2876 233,716 755,-2 -612,443 235,720 -612,-445 -613,445 235,-720 -612,-444 h 757 z"
   id="path28"
   inkscape:connector-curvature="0"
   style="fill:#000000;stroke:none" />
       </g>
      </g>
      <g
   class="com.sun.star.drawing.PolyPolygonShape"
   id="g36">
       <g
   id="id6">
        <path
   d="m 17976,3714 233,718 757,2 -614,446 235,718 -612,-445 -613,445 235,-718 -612,-446 h 755 z"
   id="path33"
   inkscape:connector-curvature="0"
   style="fill:#000000;stroke:none" />
       </g>
      </g>
      <g
   class="com.sun.star.drawing.PolyPolygonShape"
   id="g41">
       <g
   id="id7">
        <path
   d="m 20265,6002 232,718 h 754 l -614,446 234,718 -612,-444 -612,444 235,-718 -614,-446 h 755 z"
   id="path38"
   inkscape:connector-curvature="0"
   style="fill:#000000;stroke:none" />
       </g>
      </g>
      <g
   class="com.sun.star.drawing.PolyPolygonShape"
   id="g46">
       <g
   id="id8">
        <path
   d="m 21101,9126 232,716 h 754 l -614,445 234,719 -612,-444 -612,444 235,-719 -614,-445 h 753 z"
   id="path43"
   inkscape:connector-curvature="0"
   style="fill:#000000;stroke:none" />
       </g>
      </g>
      <g
   class="com.sun.star.drawing.PolyPolygonShape"
   id="g51">
       <g
   id="id9">
        <path
   d="m 20264,12249 233,714 755,-1 -612,444 234,720 -612,-445 -612,445 235,-716 -614,-450 755,-2 z"
   id="path48"
   inkscape:connector-curvature="0"
   style="fill:#000000;stroke:none" />
       </g>
      </g>
      <g
   class="com.sun.star.drawing.PolyPolygonShape"
   id="g56">
       <g
   id="id10">
        <path
   d="m 17977,14535 233,714 757,-1 -614,444 234,720 -612,-445 -612,445 235,-718 -614,-446 755,-2 z"
   id="path53"
   inkscape:connector-curvature="0"
   style="fill:#000000;stroke:none" />
       </g>
      </g>
      <g
   class="com.sun.star.drawing.PolyPolygonShape"
   id="g61">
       <g
   id="id11">
        <path
   d="m 14851,15373 233,716 757,-2 -614,447 235,719 -612,-446 -613,445 235,-718 -612,-447 h 755 z"
   id="path58"
   inkscape:connector-curvature="0"
   style="fill:#000000;stroke:none" />
       </g>
      </g>
      <g
   class="com.sun.star.drawing.PolyPolygonShape"
   id="g66">
       <g
   id="id12">
        <path
   d="m 11727,14535 231,714 759,-1 -614,444 234,720 -612,-445 -614,445 235,-718 -612,-446 755,-2 z"
   id="path63"
   inkscape:connector-curvature="0"
   style="fill:#000000;stroke:none" />
       </g>
      </g>
      <g
   class="com.sun.star.drawing.PolyPolygonShape"
   id="g71">
       <g
   id="id13">
        <path
   d="m 9441,12249 233,714 758,-1 -613,444 234,720 -614,-445 -614,445 235,-718 -612,-446 755,-2 z"
   id="path68"
   inkscape:connector-curvature="0"
   style="fill:#000000;stroke:none" />
       </g>
      </g>
      <g
   class="com.sun.star.drawing.PolyPolygonShape"
   id="g76">
       <g
   id="id14">
        <path
   d="m 8606,9126 231,716 h 753 l -614,445 235,719 -612,-444 -613,444 235,-719 -612,-445 h 755 z"
   id="path73"
   inkscape:connector-curvature="0"
   style="fill:#000000;stroke:none" />
       </g>
      </g>
      <g
   class="com.sun.star.drawing.PolyPolygonShape"
   id="g81">
       <g
   id="id15">
        <path
   d="m 9441,6002 233,718 h 757 l -612,446 234,718 -614,-444 -614,444 235,-718 -612,-446 h 755 z"
   id="path78"
   inkscape:connector-curvature="0"
   style="fill:#000000;stroke:none" />
       </g>
      </g>
      <g
   class="com.sun.star.drawing.PolyPolygonShape"
   id="g86">
       <g
   id="id16">
        <path
   d="m 11729,3714 233,718 757,2 -612,446 234,716 -614,-444 -614,444 235,-718 -612,-446 h 755 z"
   id="path83"
   inkscape:connector-curvature="0"
   style="fill:#000000;stroke:none" />
       </g>
      </g>
     </g>
    </g>
   </g>
  </g>
 <path
   inkscape:connector-curvature="0"
   d=""
   style="opacity:1;fill:none;fill-opacity:1;stroke:#45c125;stroke-width:27.39676857;stroke-linejoin:round;stroke-miterlimit:4;stroke-dasharray:none;stroke-opacity:1;paint-order:markers fill stroke"
   id="path822"
   ry="227.79662"
   rx="233.22034"
   cy="262.50848"
   cx="259.25424" /></g>
<text
   xml:space="preserve"
   style="font-style:normal;font-weight:normal;font-size:996.05114746px;line-height:1.25;font-family:sans-serif;letter-spacing:0px;word-spacing:0px;fill:#000000;fill-opacity:1;stroke:none;stroke-width:210.82917786"
   x="2830.1162"
   y="1978.1991"
   id="text1042"
   transform="matrix(0.69065701,0,0,1.1661604,-1493.3307,-542.20284)"
   clip-path="url(#clipPath991)"><tspan
     sodipodi:role="line"
     x="2830.1162"
     y="1978.1991"
     id="tspan1040"
     style="stroke-width:210.82917786"><tspan
       x="2830.1162"
       y="1978.1991"
       style="font-style:normal;font-variant:normal;font-weight:normal;font-stretch:normal;font-size:996.05114746px;font-family:'Franklin Gothic Heavy';-inkscape-font-specification:'Franklin Gothic Heavy, ';stroke-width:210.82917786"
       id="tspan1038">GDPR</tspan></tspan></text>

<text
   xml:space="preserve"
   style="font-style:normal;font-weight:normal;font-size:996.05114746px;line-height:1.25;font-family:sans-serif;letter-spacing:0px;word-spacing:0px;fill:#000000;fill-opacity:1;stroke:none;stroke-width:210.82917786"
   x="6226.248"
   y="1980.6042"
   id="text1036"
   transform="matrix(0.69065701,0,0,1.1661604,-1493.3307,-542.20284)"
   clip-path="url(#clipPath987)"><tspan
     sodipodi:role="line"
     x="6226.248"
     y="1980.6042"
     id="tspan1034"
     style="stroke-width:210.82917786"><tspan
       x="6226.248"
       y="1980.6042"
       style="font-style:normal;font-variant:normal;font-weight:normal;font-stretch:normal;font-size:996.05114746px;font-family:'Franklin Gothic Heavy';-inkscape-font-specification:'Franklin Gothic Heavy, ';stroke-width:210.82917786"
       id="tspan1032">PROOF</tspan></tspan></text>

<path
   inkscape:connector-curvature="0"
   d="m 6060.3472,1354.137 c -2.9584,-4.0867 -4.4371,-9.5347 -4.4371,-14.6423 -43.788,-88.8842 -46.4504,-197.5183 -90.238,-286.4 -123.3732,79.6875 -207.694,221.6951 -288.1692,351.1025 -48.5206,77.9858 -92.0121,158.016 -131.9517,242.1304 -40.2375,84.4551 -79.2922,169.9333 -124.2624,251.3224 -6.5086,11.579 -23.3731,17.0292 -30.4731,2.3848 -21.302,-45.293 -45.2669,-89.2222 -72.7816,-130.0881 -23.6683,-35.0776 -50.5936,-66.4067 -74.8538,-100.8036 -37.5729,-53.4661 -77.8104,-117.4879 -129.8814,-154.6077 -18.9357,71.5143 -41.1247,142.3478 -50.8897,216.5874 72.7833,54.1468 128.4042,132.473 181.954,209.7782 62.7231,90.586 127.5173,177.085 197.9317,259.8384 45.5626,-68.4512 76.9229,-148.1388 114.7938,-222.3786 44.6749,-87.5202 96.7454,-168.2313 152.0735,-247.238 55.3246,-79.0068 119.2307,-148.8193 183.4331,-217.6084 30.1762,-32.3525 65.6811,-58.9143 97.9292,-88.5439 24.2599,-22.475 47.9292,-45.6333 70.1188,-70.4932 0,0.3426 0,0 -0.2933,-0.3406 z"
   id="path2"
   style="fill:#38b02b;fill-opacity:1;fill-rule:evenodd;stroke:none;stroke-width:3.17418385;stroke-linejoin:round"
   clip-path="url(#clipPath983)"
   transform="matrix(1.0346232,0,0,1.0346232,-63.025228,-266.306)" /><path
   style="opacity:1;fill:none;fill-opacity:0.96336203;fill-rule:evenodd;stroke:#2c9500;stroke-width:41.86504745;stroke-linejoin:round;stroke-miterlimit:4;stroke-dasharray:none;stroke-opacity:1;paint-order:markers fill stroke"
   id="path986"
   sodipodi:type="arc"
   sodipodi:cx="5528.3789"
   sodipodi:cy="1674.1001"
   sodipodi:rx="555.73987"
   sodipodi:ry="568.39349"
   sodipodi:start="5.8766929"
   sodipodi:end="5.1403829"
   d="m 6038.8334,1449.363 a 555.73987,568.39349 0 0 1 -200.9994,696.8581 555.73987,568.39349 0 0 1 -706.6244,-74.5501 555.73987,568.39349 0 0 1 -57.6813,-724.1494 555.73987,568.39349 0 0 1 685.5085,-190.546"
   sodipodi:open="true"
   clip-path="url(#clipPath979)"
   transform="matrix(1.0346232,0,0,1.0346232,-63.025228,-266.306)" /></svg>