<?xml version="1.0" encoding="UTF-8" standalone="no"?>
<svg
   xmlns:dc="http://purl.org/dc/elements/1.1/"
   xmlns:cc="http://creativecommons.org/ns#"
   xmlns:rdf="http://www.w3.org/1999/02/22-rdf-syntax-ns#"
   xmlns:svg="http://www.w3.org/2000/svg"
   xmlns="http://www.w3.org/2000/svg"
   xmlns:sodipodi="http://sodipodi.sourceforge.net/DTD/sodipodi-0.dtd"
   xmlns:inkscape="http://www.inkscape.org/namespaces/inkscape"
   version="1.0"
   width="178.81461pt"
   height="66.048004pt"
   viewBox="0 0 178.81462 66.048003"
   preserveAspectRatio="xMidYMid meet"
   id="svg8"
   sodipodi:docname="scales.svg"
   inkscape:version="0.92.4 (5da689c313, 2019-01-14)">
  <defs
     id="defs12" />
  <sodipodi:namedview
     pagecolor="#ffffff"
     bordercolor="#666666"
     borderopacity="1"
     objecttolerance="10"
     gridtolerance="10"
     guidetolerance="10"
     inkscape:pageopacity="0"
     inkscape:pageshadow="2"
     inkscape:window-width="1920"
     inkscape:window-height="986"
     id="namedview10"
     showgrid="false"
     inkscape:zoom="1.6701638"
     inkscape:cx="201.99809"
     inkscape:cy="-64.084247"
     inkscape:window-x="-11"
     inkscape:window-y="-11"
     inkscape:window-maximized="1"
     inkscape:current-layer="svg8" />
  <metadata
     id="metadata2">
Created by potrace 1.15, written by Peter Selinger 2001-2017
<rdf:RDF>
  <cc:Work
     rdf:about="">
    <dc:format>image/svg+xml</dc:format>
    <dc:type
       rdf:resource="http://purl.org/dc/dcmitype/StillImage" />
  </cc:Work>
</rdf:RDF>
</metadata>
  <rect
     style="opacity:1;fill:#ffffff;fill-opacity:1;stroke:none;stroke-width:0.07850932;stroke-linejoin:round;stroke-miterlimit:4;stroke-dasharray:none;stroke-opacity:0.9353448;paint-order:markers fill stroke"
     id="rect858"
     width="73.097824"
     height="66.048004"
     x="0"
     y="0" />
  <g
     transform="matrix(0.00566453,0,0,-0.00541679,0,65.497597)"
     id="g6"
     style="fill:#f8f9ff;fill-opacity:1;stroke:none">
    <path
       d="m 6376,11948 c -3,-24 -22,-239 -41,-478 -74,-919 -116,-1177 -208,-1277 -11,-13 -24,-23 -29,-23 -5,0 -43,33 -86,73 -111,104 -159,141 -251,196 -337,203 -835,262 -1401,165 -265,-45 -502,-109 -1112,-298 -307,-96 -472,-142 -658,-186 -284,-66 -633,-110 -717,-88 -40,10 -46,9 -68,-12 -13,-12 -27,-34 -30,-49 -5,-23 35,-468 50,-558 l 6,-33 h 174 c 96,0 175,-2 175,-5 0,-3 -23,-67 -51,-142 C 2066,9063 1646,7922 1540,7635 1463,7424 1196,6702 690,5330 541,4926 369,4459 308,4292 L 196,3990 H 98 c -61,0 -98,-4 -98,-10 0,-6 22,-43 49,-83 191,-283 548,-560 1031,-801 182,-91 331,-147 515,-194 453,-118 959,-120 1440,-7 542,128 927,369 1529,955 l 138,135 -117,5 -117,5 -115,310 c -172,468 -592,1606 -951,2580 -257,698 -583,1581 -892,2418 l -29,77 h 1871 1871 l -7,-192 c -4,-106 -20,-582 -36,-1058 -99,-2894 -116,-3391 -161,-4670 -17,-487 -31,-986 -32,-1110 -1,-223 -1,-227 36,-415 61,-306 62,-466 1,-587 C 5953,1207 5718,1003 5435,835 4924,533 4034,233 3088,44 c -19,-4 -28,-12 -28,-25 0,-19 53,-19 3340,-19 3287,0 3340,0 3340,19 0,13 -9,21 -27,25 -1001,200 -1887,507 -2414,837 -254,158 -450,343 -516,485 -25,53 -28,73 -31,184 -3,113 0,144 37,330 65,331 63,297 41,928 -11,312 -33,965 -50,1452 -17,487 -39,1142 -50,1455 -30,878 -79,2301 -103,3015 l -22,645 1844,3 c 1014,1 1846,1 1847,-1 2,-1 -92,-259 -207,-572 C 9798,8015 9431,7019 9110,6150 8961,5746 8726,5109 8588,4735 8451,4361 8332,4041 8325,4023 l -14,-32 -104,-3 -104,-3 68,-95 c 192,-267 446,-475 871,-714 170,-95 269,-141 431,-200 371,-134 788,-189 1194,-155 259,21 546,79 763,154 298,104 634,314 955,598 166,148 415,389 415,403 0,10 -24,14 -107,16 l -108,3 -148,400 c -81,220 -262,711 -401,1090 -258,698 -590,1598 -1048,2840 -138,374 -279,757 -313,850 -35,94 -66,178 -70,188 -7,16 6,17 178,17 h 186 l 5,33 c 16,97 56,540 50,561 -3,13 -16,34 -29,46 -22,20 -28,22 -66,12 -33,-8 -68,-6 -178,13 -295,51 -478,96 -1026,250 -657,185 -898,244 -1170,289 -283,47 -437,59 -700,53 -258,-5 -386,-21 -533,-63 -204,-59 -330,-134 -499,-296 -61,-60 -115,-108 -120,-108 -14,0 -48,40 -67,77 -30,59 -66,204 -86,346 -30,215 -47,400 -105,1117 -21,266 -23,280 -45,280 -13,0 -19,-11 -24,-42 z M 2458,8790 c 118,-320 358,-973 892,-2420 503,-1363 772,-2094 825,-2237 l 53,-143 H 2334 c -1042,0 -1894,1 -1894,3 0,4 -42,-110 890,2417 149,404 383,1039 520,1410 225,611 462,1253 475,1289 3,8 7,12 9,10 2,-2 58,-150 124,-329 z m 8139,-58 c 78,-213 264,-718 413,-1122 448,-1216 755,-2047 1025,-2780 140,-382 267,-723 280,-758 14,-34 25,-67 25,-72 0,-7 -650,-10 -1890,-10 -1039,0 -1890,3 -1890,6 0,7 53,152 530,1444 149,404 383,1039 520,1410 137,371 371,1006 521,1410 149,404 281,763 292,798 12,34 24,62 27,62 3,0 69,-175 147,-388 z"
       id="path4"
       style="fill:#000000;fill-opacity:1"
       inkscape:connector-curvature="0" />
  </g>
  <text
     xml:space="preserve"
     style="font-style:normal;font-weight:normal;font-size:20.70179749px;line-height:1.25;font-family:sans-serif;letter-spacing:0px;word-spacing:0px;fill:#000000;fill-opacity:1;fill-rule:evenodd;stroke:none;stroke-width:4.38184595;stroke-linejoin:round"
     x="96.849167"
     y="23.110464"
     id="text872"
     transform="scale(0.79605729,1.256191)"><tspan
       sodipodi:role="line"
       x="96.849167"
       y="23.110464"
       id="tspan870"
       style="stroke-width:4.38184595"><tspan
         x="96.849167"
         y="23.110464"
         style="font-style:normal;font-variant:normal;font-weight:normal;font-stretch:normal;font-size:20.70179749px;font-family:'Franklin Gothic Heavy';-inkscape-font-specification:'Franklin Gothic Heavy, ';stroke-width:4.38184595"
         id="tspan868">ETHICS</tspan></tspan></text>
  <text
     xml:space="preserve"
     style="font-style:normal;font-weight:normal;font-size:20.70179749px;line-height:1.25;font-family:sans-serif;letter-spacing:0px;word-spacing:0px;fill:#000000;fill-opacity:1;fill-rule:evenodd;stroke:none;stroke-width:4.38184595;stroke-linejoin:round"
     x="97.132294"
     y="37.670795"
     id="text878"
     transform="scale(0.79605729,1.256191)"><tspan
       sodipodi:role="line"
       x="97.132294"
       y="37.670795"
       id="tspan876"
       style="stroke-width:4.38184595"><tspan
         x="97.132294"
         y="37.670795"
         style="font-style:normal;font-variant:normal;font-weight:normal;font-stretch:normal;font-size:13.84817219px;font-family:'Franklin Gothic Heavy';-inkscape-font-specification:'Franklin Gothic Heavy, ';stroke-width:4.38184595"
         id="tspan874">MONITORED</tspan></tspan></text>
  <path
     inkscape:connector-curvature="0"
     d="m 178.80459,25.29825 c -0.10025,-0.138476 -0.15037,-0.323093 -0.15037,-0.496173 -1.48382,-3.011958 -1.57403,-6.693172 -3.05783,-9.70505 -4.18067,2.70032 -7.038,7.512437 -9.765,11.897584 -1.64418,2.642652 -3.11796,5.354583 -4.47136,8.204915 -1.36351,2.861871 -2.68692,5.758419 -4.21079,8.516398 -0.22056,0.392371 -0.79204,0.577055 -1.03264,0.08081 -0.72184,-1.534818 -1.53392,-3.023415 -2.46631,-4.408213 -0.80203,-1.188651 -1.71442,-2.250281 -2.5365,-3.415866 -1.27321,-1.811775 -2.63672,-3.981236 -4.40121,-5.239091 -0.64166,2.423359 -1.39357,4.82365 -1.72447,7.339354 2.46637,1.83484 4.35116,4.489027 6.16576,7.108615 2.12545,3.069632 4.32109,6.000763 6.70717,8.804976 1.54396,-2.31956 2.60665,-5.019882 3.88996,-7.535597 1.51387,-2.965734 3.27835,-5.700744 5.15321,-8.377994 1.87475,-2.677252 4.0403,-5.042941 6.21588,-7.373953 1.02255,-1.096306 2.22567,-1.996388 3.31845,-3.000427 0.82209,-0.761598 1.62415,-1.546347 2.37607,-2.388759 0,0.01167 0,0 -0.0101,-0.01153 z"
     id="path2"
     style="fill:#38b02b;fill-opacity:1;fill-rule:evenodd;stroke:none;stroke-width:0.10756149;stroke-linejoin:round" />
  <path
     style="opacity:1;fill:none;fill-opacity:0.96336203;fill-rule:evenodd;stroke:#2c9500;stroke-width:1.29588032;stroke-linejoin:round;stroke-miterlimit:4;stroke-dasharray:none;stroke-opacity:1;paint-order:markers fill stroke"
     id="path986"
     sodipodi:type="arc"
     sodipodi:cx="159.41161"
     sodipodi:cy="37.685059"
     sodipodi:rx="17.202232"
     sodipodi:ry="17.59391"
     sodipodi:start="5.8766929"
     sodipodi:end="5.1403829"
     d="m 175.21209,30.728603 a 17.202232,17.59391 0 0 1 -6.22169,21.57037 17.202232,17.59391 0 0 1 -21.87267,-2.307605 17.202232,17.59391 0 0 1 -1.78546,-22.415138 17.202232,17.59391 0 0 1 21.21906,-5.898114"
     sodipodi:open="true" />
</svg>
