<?xml version="1.0" encoding="UTF-8" standalone="no"?>
<!-- Generator: Adobe Illustrator 15.0.2, SVG Export Plug-In . SVG Version: 6.00 Build 0)  -->

<svg
   xmlns:dc="http://purl.org/dc/elements/1.1/"
   xmlns:cc="http://creativecommons.org/ns#"
   xmlns:rdf="http://www.w3.org/1999/02/22-rdf-syntax-ns#"
   xmlns:svg="http://www.w3.org/2000/svg"
   xmlns="http://www.w3.org/2000/svg"
   xmlns:sodipodi="http://sodipodi.sourceforge.net/DTD/sodipodi-0.dtd"
   xmlns:inkscape="http://www.inkscape.org/namespaces/inkscape"
   version="1.1"
   id="Layer_1"
   x="0px"
   y="0px"
   width="149.81216"
   height="63.561394"
   viewBox="0 0 149.81216 63.561393"
   enable-background="new 0 0 946.453 418.479"
   xml:space="preserve"
   sodipodi:docname="UniversiteitLeidenLogo.svg"
   inkscape:version="0.92.4 (5da689c313, 2019-01-14)"><metadata
   id="metadata283"><rdf:RDF><cc:Work
       rdf:about=""><dc:format>image/svg+xml</dc:format><dc:type
         rdf:resource="http://purl.org/dc/dcmitype/StillImage" /></cc:Work></rdf:RDF></metadata><defs
   id="defs281" /><sodipodi:namedview
   pagecolor="#ffffff"
   bordercolor="#666666"
   borderopacity="1"
   objecttolerance="10"
   gridtolerance="10"
   guidetolerance="10"
   inkscape:pageopacity="0"
   inkscape:pageshadow="2"
   inkscape:window-width="1920"
   inkscape:window-height="986"
   id="namedview279"
   showgrid="false"
   inkscape:zoom="3.3134239"
   inkscape:cx="147.5896"
   inkscape:cy="-35.349968"
   inkscape:window-x="-11"
   inkscape:window-y="-11"
   inkscape:window-maximized="1"
   inkscape:current-layer="Layer_1" />
<g
   id="g270"
   transform="matrix(0.16420153,0,0,0.16420153,-2.8216555,-2.981752)">
	<g
   id="g4">
		<path
   stroke-miterlimit="10.43"
   d="m 181.805,18.206 h 4.552 c 25.672,0.45 51.12,7.777 73.185,20.88 26.122,15.33 47.52,38.04 62.768,64.095 38.1,65.19 38.295,150.683 0.562,216.068 -14.018,24.263 -33.3,45.667 -56.812,61.035 -23.535,15.547 -51.435,24.45 -79.673,24.922 h -4.478 c -19.583,-0.397 -39.075,-4.635 -56.985,-12.57 C 90.401,377.478 62.314,349.661 44.081,316.916 26.786,286.174 17.996,250.991 17.231,215.809 v -7.522 c 0.562,-29.272 6.593,-58.522 18.57,-85.283 14.01,-31.5 36.232,-59.708 65.01,-78.945 23.806,-16.103 52.224,-25.358 80.994,-25.853 z m -15.645,3.615 c -28.058,3.502 -54.735,15.652 -76.508,33.57 -23.85,19.462 -42.067,45.367 -53.812,73.732 -21.51,52.245 -21.502,112.965 0.015,165.203 10.545,25.44 26.25,48.885 46.627,67.492 24.375,22.523 55.987,37.59 89.212,40.343 32.573,3 65.85,-5.925 93.045,-23.962 22.267,-14.558 40.71,-34.628 54.352,-57.398 19.005,-31.635 28.86,-68.475 29.415,-105.3 0.863,-44.917 -12.15,-90.413 -38.655,-126.893 C 292.901,65.246 270.326,45.663 243.926,33.738 219.777,22.661 192.522,18.468 166.16,21.821 Z"
   id="path2"
   inkscape:connector-curvature="0"
   style="fill:#014189;stroke:#014189;stroke-width:0.0938;stroke-miterlimit:10.43000031" />
	</g>
	<path
   stroke-miterlimit="10.43"
   d="m 180.68,27.88 c 3.99,-3.188 9.488,-2.812 14.153,-1.643 0.135,1.853 0.255,3.705 0.24,5.565 -1.59,-1.275 -2.04,-3.69 -4.043,-4.455 -2.722,-1.237 -6.367,-0.353 -7.785,2.4 -1.545,3.007 -1.5,6.855 0.12,9.825 1.297,2.363 4.612,3.983 7.117,2.618 0.6,-1.695 0.292,-3.517 0.248,-5.272 -1.058,-0.195 -2.115,-0.397 -3.172,-0.585 l 0.007,-1.057 c 3.277,0.18 6.652,-0.293 9.833,0.682 -0.562,0.3 -1.688,0.9 -2.25,1.2 -0.105,2.002 -0.097,4.012 -0.022,6.015 -4.77,1.155 -10.373,1.65 -14.498,-1.553 -4.366,-3.217 -4.216,-10.515 0.052,-13.74 z"
   id="path6"
   inkscape:connector-curvature="0"
   style="fill:#014189;stroke:#014189;stroke-width:0.0938;stroke-miterlimit:10.43000031" />
	<path
   stroke-miterlimit="10.43"
   d="m 164.165,27.835 c 2.505,-1.62 5.693,-1.372 8.535,-1.853 -0.788,0.938 -2.032,1.553 -2.52,2.7 -0.3,4.65 2.445,9.675 -0.165,14.002 -2.685,3.292 -8.288,4.312 -11.805,1.822 -3.502,-3.72 -2.1,-9.442 -4.208,-13.77 -0.99,-0.27 -1.988,-0.517 -2.985,-0.735 3.202,-1.642 6.938,-1.627 10.44,-2.115 -0.855,0.795 -1.853,1.44 -2.618,2.34 0.052,2.925 0.667,5.82 1.312,8.67 0.442,1.868 1.373,3.968 3.36,4.605 2.527,0.855 5.498,-0.93 5.745,-3.637 0.308,-3.495 -0.427,-7.027 -1.432,-10.365 -0.269,-1.708 -2.564,-1.026 -3.659,-1.664 z"
   id="path8"
   inkscape:connector-curvature="0"
   style="fill:#014189;stroke:#014189;stroke-width:0.0938;stroke-miterlimit:10.43000031" />
	<g
   id="g12">
		<path
   stroke-miterlimit="10.43"
   d="m 203.952,26.92 c 5.212,1.125 10.867,1.47 15.488,4.35 4.927,3.217 3.63,11.22 -1.185,13.883 -3.465,2.002 -7.65,1.334 -11.355,0.487 -2.317,-0.607 -4.845,-0.758 -6.923,-2.055 1.208,-0.54 3.367,0.067 3.66,-1.665 1.05,-3.622 1.755,-7.35 2.512,-11.04 0.751,-1.807 -1.319,-2.729 -2.197,-3.96 z m 6.833,2.978 c -0.975,4.35 -2.227,8.663 -2.827,13.088 -0.165,2.152 2.835,2.069 4.32,1.972 4.703,-0.757 6.345,-6.6 5.483,-10.672 -0.773,-3.098 -4.194,-4.096 -6.976,-4.388 z"
   id="path10"
   inkscape:connector-curvature="0"
   style="fill:#014189;stroke:#014189;stroke-width:0.0938;stroke-miterlimit:10.43000031" />
	</g>
	<path
   stroke-miterlimit="10.43"
   d="m 132.005,36.018 c 3.36,-1.155 6.69,-3.172 10.312,-3.127 -0.84,0.81 -1.875,1.44 -2.535,2.422 0.968,3.99 2.408,7.875 3.878,11.708 0.518,2.062 2.91,1.23 4.282,0.63 2.618,-0.727 1.935,-3.893 3.113,-5.797 0.562,1.913 0.878,3.885 1.125,5.865 -4.958,1.567 -9.773,3.585 -14.82,4.83 0.78,-0.96 1.725,-1.77 2.453,-2.775 -0.885,-3.968 -2.423,-7.763 -3.773,-11.595 -0.383,-1.936 -2.602,-1.621 -4.035,-2.161 z"
   id="path14"
   inkscape:connector-curvature="0"
   style="fill:#014189;stroke:#014189;stroke-width:0.0938;stroke-miterlimit:10.43000031" />
	<path
   stroke-miterlimit="10.43"
   d="m 229.198,33.078 c 3.307,1.237 6.682,2.438 9.705,4.305 -1.102,0.112 -2.205,0.262 -3.3,0.442 -1.365,1.822 -2.055,4.035 -2.955,6.104 -0.803,2.213 -1.92,4.755 -0.758,7.043 1.365,2.542 5.325,3.03 7.147,0.697 2.1,-2.632 3.285,-5.88 4.32,-9.045 0.81,-1.785 -1.312,-2.888 -2.085,-4.237 2.85,0.825 5.715,1.853 8.13,3.615 -1.08,0.098 -2.152,0.218 -3.217,0.375 -3.12,3.713 -3.24,9.87 -8.093,12.045 -4.125,1.207 -9.742,-1.005 -10.912,-5.385 -0.353,-4.672 3.015,-8.505 4.012,-12.908 -0.592,-1.064 -1.357,-2.016 -1.994,-3.051 z"
   id="path16"
   inkscape:connector-curvature="0"
   style="fill:#014189;stroke:#014189;stroke-width:0.0938;stroke-miterlimit:10.43000031" />
	<path
   stroke-miterlimit="10.43"
   d="m 121.685,44.733 c 3.105,-1.567 6.96,1.62 6.127,4.958 -0.45,3.225 -4.883,4.598 -7.133,2.288 -2.294,-1.921 -1.724,-6.031 1.006,-7.246 z"
   id="path18"
   inkscape:connector-curvature="0"
   style="fill:#014189;stroke:#014189;stroke-width:0.0938;stroke-miterlimit:10.43000031" />
	<path
   stroke-miterlimit="10.43"
   d="m 253.107,44.058 c 2.212,0.78 4.117,2.183 6.03,3.51 0.795,5.288 1.59,10.568 2.43,15.84 1.785,-2.73 3.93,-5.302 5.07,-8.385 -0.525,-1.155 -1.185,-2.228 -1.74,-3.36 2.677,1.365 5.13,3.112 7.515,4.935 -1.237,0.038 -2.475,-0.075 -3.698,0.03 -3.465,3.983 -6.075,8.618 -9.083,12.945 -0.405,-0.285 -1.207,-0.848 -1.612,-1.133 -0.78,-5.85 -1.598,-11.7 -2.407,-17.55 -1.943,3.09 -4.283,5.97 -5.73,9.337 0.435,1.2 1.312,2.167 1.958,3.263 -2.88,-0.99 -5.31,-2.903 -7.665,-4.763 1.117,-0.038 2.235,0.067 3.36,0.053 1.552,-0.968 2.385,-2.73 3.465,-4.155 1.545,-2.445 3.57,-4.71 4.17,-7.62 -0.728,-0.952 -1.425,-1.927 -2.063,-2.947 z"
   id="path20"
   inkscape:connector-curvature="0"
   style="fill:#014189;stroke:#014189;stroke-width:0.0938;stroke-miterlimit:10.43000031" />
	<g
   id="g24">
		<path
   stroke-miterlimit="10.43"
   d="m 102.425,52.63 c 0.142,-0.442 0.42,-1.32 0.562,-1.755 4.635,2.857 9.12,5.955 13.755,8.812 1.5,1.058 3.36,0.345 5.055,0.48 -2.565,2.16 -5.347,4.05 -8.22,5.782 0.308,-0.922 0.63,-1.838 0.983,-2.738 -1.133,-0.788 -2.265,-1.567 -3.413,-2.333 -1.5,1.065 -3.015,2.115 -4.522,3.165 0.412,1.26 0.765,2.542 1.305,3.765 0.57,-0.09 1.725,-0.277 2.302,-0.368 l 0.42,0.705 c -2.115,1.5 -4.215,3.045 -6.517,4.252 0.48,-1.544 1.673,-2.992 1.282,-4.702 -0.81,-5.052 -2.19,-10.009 -2.992,-15.065 z m 2.19,3.841 c 0.495,2.002 0.99,3.998 1.485,5.992 1.208,-0.825 2.415,-1.658 3.63,-2.482 -1.688,-1.2 -3.397,-2.356 -5.115,-3.51 z"
   id="path22"
   inkscape:connector-curvature="0"
   style="fill:#014189;stroke:#014189;stroke-width:0.0938;stroke-miterlimit:10.43000031" />
	</g>
	<g
   id="g28">
		<path
   stroke-miterlimit="10.43"
   d="m 134.037,64.488 c 12.24,-9.225 27.9,-12.188 42.885,-13.05 16.68,-0.78 34.275,0.862 48.968,9.442 13.448,7.74 22.568,22.688 22.673,38.273 0,20.16 -0.008,40.32 0.007,60.472 -1.365,0.45 -3.105,0.645 -3.757,2.138 -1.095,1.604 -0.09,3.405 0.48,4.995 0.472,-1.462 0.555,-3.217 1.77,-4.312 1.095,-1.162 2.797,-1.132 4.26,-1.417 0.24,1.35 0.938,2.782 0.36,4.14 -0.525,0.997 -1.463,1.688 -2.213,2.497 1.868,4.095 6.915,6.428 11.145,4.583 2.752,-1.17 5.422,-4.575 3.787,-7.568 -1.215,1.133 -2.265,2.963 -4.177,2.843 -2.347,0.105 -4.35,-2.272 -3.802,-4.567 0.367,-2.257 3.03,-3.698 5.13,-2.79 1.59,0.555 2.107,2.31 2.94,3.6 0.465,-0.712 0.922,-1.425 1.387,-2.145 -1.665,-1.013 -3.772,-2.378 -3.255,-4.672 0.285,-3.54 5.655,-4.47 7.14,-1.253 1.387,2.445 -0.57,4.98 -2.858,5.843 0.473,0.757 0.96,1.507 1.455,2.25 0.81,-1.38 1.365,-3.315 3.142,-3.72 2.325,-0.817 5.025,1.178 4.92,3.645 0.045,2.183 -2.018,4.042 -4.177,3.803 -1.808,-0.112 -2.76,-1.837 -3.938,-2.948 -1.538,3.188 1.185,6.683 4.132,7.785 4.147,1.62 9.053,-0.637 10.815,-4.658 -1.665,-1.26 -1.252,-3.54 -0.015,-4.92 1.08,-1.342 2.948,-1.425 4.455,-1.98 -1.283,-0.428 -2.573,-0.825 -3.863,-1.192 0.067,-18.473 0.03,-36.953 0.022,-55.425 15.765,21.255 26.288,46.245 31.08,72.247 6.352,34.118 3.33,69.998 -9.06,102.442 -4.77,-0.015 -9.54,0.053 -14.31,-0.022 1.32,1.657 2.97,3.757 2.025,6.007 -0.817,1.815 -3.202,1.5 -4.837,1.672 -15.015,0.053 -30.022,0.045 -45.038,0.008 -1.815,-0.105 -4.522,0.067 -5.212,-2.093 -0.742,-2.205 0.893,-4.095 2.16,-5.685 -8.948,0.127 -17.895,0 -26.842,0.068 4.11,-6.3 5.812,-13.732 7.215,-21.015 3.105,-16.688 2.663,-33.735 2.955,-50.633 0.09,-4.709 -0.203,-9.412 -0.285,-14.122 1.44,-2.1 1.087,-4.815 -0.353,-6.825 -2.535,-3.308 -5.647,-6.765 -5.663,-11.183 -0.322,-5.82 -2.01,-11.452 -3.863,-16.935 1.298,-0.36 3.495,0.105 3.923,-1.62 0.488,-2.01 -0.915,-3.795 -1.95,-5.37 -2.542,-3.36 -4.508,-7.238 -5.295,-11.4 -0.915,-9.233 2.018,-19.268 -2.67,-27.833 -2.22,-4.32 -7.268,-5.28 -11.032,-7.71 -1.478,4.11 -6.157,5.475 -10.103,5.67 -3.69,0.105 -7.83,-0.397 -10.627,-3.038 -1.155,-0.967 -1.087,-2.565 -1.305,-3.915 -2.423,0.405 -4.875,0.728 -7.268,1.29 -2.512,0.578 -4.448,2.625 -5.348,4.98 -1.702,4.245 -3.412,8.498 -4.86,12.84 -3.337,-3.742 -6.938,-7.268 -10.748,-10.515 -1.605,-0.195 -3.18,0.45 -4.74,0.712 6.188,5.317 12.188,11.04 16.732,17.865 -7.087,-3.127 -14.948,-3.765 -22.59,-3.21 -0.93,1.29 -1.853,2.58 -2.782,3.87 6.81,-0.51 13.815,-0.915 20.468,0.908 2.19,0.502 3.9,1.995 5.587,3.375 1.215,1.125 3.63,0.48 3.69,-1.32 1.05,-4.267 3.938,-7.777 7.02,-10.777 4.642,-4.402 10.192,-7.763 16.087,-10.192 2.19,6.757 4.335,13.53 6.54,20.28 1.567,0.255 3.142,0.525 4.702,0.84 -1.05,-1.5 -2.002,-3.068 -2.73,-4.748 2.363,-0.39 5.333,-0.293 6.66,-2.7 1.875,-3.255 -0.045,-6.953 -1.185,-10.103 0.285,-0.067 0.863,-0.203 1.147,-0.27 1.148,3.24 2.91,6.66 1.958,10.178 -0.623,2.19 -2.835,3.322 -3.893,5.25 -0.547,1.71 0.72,3.143 1.943,4.147 0.038,1.417 0.052,2.834 0.075,4.26 -5.423,-1.673 -11.13,-1.995 -16.763,-2.325 0.532,-0.473 1.598,-1.418 2.13,-1.89 -1.492,0.052 -2.978,0.143 -4.47,0.225 2.19,-1.53 4.432,-3.061 5.962,-5.311 -0.54,-0.72 -1.08,-1.432 -1.605,-2.145 -2.317,0.922 -4.597,1.965 -7.042,2.498 1.395,-2.302 3.277,-4.297 4.282,-6.833 -4.193,1.005 -6.443,5.438 -10.59,6.757 0,-2.025 0.278,-4.26 -1.515,-5.677 -0.923,3.263 -2.363,6.337 -3.292,9.592 -3.165,2.603 -7.478,3.877 -11.542,3.172 -2.475,-1.485 -5.378,-3.532 -8.378,-2.13 -3.008,1.853 -4.282,5.49 -4.89,8.797 -0.637,4.087 -0.518,8.325 0.45,12.353 0.66,2.22 2.018,4.815 4.545,5.22 1.965,0.165 3.63,-1.163 4.86,-2.543 3.188,-3.449 5.212,-7.777 6.623,-12.209 6.42,-1.627 10.83,-7.897 17.805,-7.785 -2.94,2.888 -7.05,4.493 -9.593,7.785 -2.265,5.565 -5.925,10.545 -7.44,16.402 -1.02,2.483 2.34,4.163 1.38,6.608 -2.182,9.682 -3.547,19.515 -4.762,29.354 -0.082,1.373 -0.217,3.218 1.125,4.065 4.808,2.018 10.253,0.285 15.075,2.273 -0.322,2.452 -0.165,5.167 -1.725,7.26 -0.465,-1.635 -0.788,-3.308 -1.028,-4.988 -3.39,-0.615 -6.877,-0.66 -10.305,-0.667 -0.218,0.225 -0.645,0.682 -0.863,0.907 -0.765,3.345 -0.42,6.833 -0.87,10.223 -0.953,6.825 -0.63,13.732 -1.035,20.603 -0.577,10.312 -1.012,20.64 -1.402,30.96 -5.948,0 -12.008,0.06 -17.79,-1.53 -1.508,-0.51 -3.712,-1.155 -3.675,-3.127 1.83,-3.442 5.498,-5.22 8.752,-7.035 3.99,-3.863 5.828,-9.338 7.298,-14.558 0.87,-3.72 2.34,-7.373 2.182,-11.25 -1.747,0.652 -2.962,2.078 -3.735,3.728 -1.905,3.615 -3.608,8.002 -7.657,9.69 -2.288,0.825 -3.848,-1.875 -3.848,-3.825 -0.135,-3.817 1.995,-8.355 6,-9.285 0.78,0.727 1.575,1.447 2.37,2.167 5.483,-8.122 9.255,-17.55 9.735,-27.405 -0.045,-2.438 0.12,-5.678 -2.377,-7.035 -1.74,0.607 -2.138,2.752 -3.593,3.773 -0.922,-0.96 -1.095,-2.288 -0.787,-3.541 1.155,-6.712 3.45,-13.155 5.685,-19.567 1.162,-3.48 2.91,-6.788 3.652,-10.395 -0.623,-1.012 -1.688,-1.762 -2.025,-2.925 1.282,-7.252 5.58,-13.447 7.958,-20.302 -2.61,1.59 -3.585,4.657 -5.077,7.155 -7.433,14.67 -11.768,30.712 -14.812,46.815 -0.555,3.57 -1.703,7.68 0.45,10.942 1.193,1.53 3.008,0.135 4.425,-0.232 -2.28,7.98 -8.82,13.658 -11.828,21.292 -2.175,5.362 -4.26,11.948 -1.058,17.325 0.96,1.83 2.235,3.922 1.373,6.045 -1.8,4.56 -7.462,6.097 -9.157,10.732 -0.93,2.093 0.165,4.425 1.762,5.843 2.265,2.025 5.01,3.397 7.538,5.047 -4.058,0.007 -8.108,0.045 -12.165,-0.03 1.335,1.68 2.955,3.788 2.04,6.075 -0.848,1.875 -3.33,1.507 -5.01,1.688 -15,0.007 -30.008,-0.015 -45.008,-0.045 -1.695,-0.105 -4.013,0.127 -4.943,-1.65 -1.02,-2.25 0.638,-4.365 1.95,-6.03 -4.252,0.083 -8.513,0.038 -12.773,0.06 -10.59,-27.75 -14.347,-58.02 -11.22,-87.54 3.262,-31.492 14.595,-62.317 33.69,-87.683 0.022,18.78 -0.045,37.561 0.03,56.34 -1.672,-0.158 -3.307,0.143 -4.867,0.72 1.778,0.622 4.035,0.899 4.98,2.79 1.125,1.59 -0.097,3.405 -0.037,5.115 2.265,4.117 8.302,5.52 12.045,2.602 1.95,-1.485 3.637,-4.334 2.205,-6.712 -1.125,1.065 -2.025,2.76 -3.765,2.873 -2.198,0.308 -4.357,-1.612 -4.267,-3.833 -0.06,-2.459 2.632,-4.433 4.95,-3.592 1.77,0.42 2.317,2.355 3.12,3.735 0.488,-0.757 0.968,-1.515 1.44,-2.28 -1.193,-0.817 -2.835,-1.462 -3.15,-3.061 -0.743,-2.37 1.365,-4.979 3.832,-4.8 2.318,0.03 4.177,2.445 3.555,4.695 -0.285,1.65 -1.987,2.34 -3.18,3.248 0.443,0.727 0.885,1.462 1.343,2.19 0.847,-1.305 1.373,-3.12 3.008,-3.66 2.347,-0.982 5.235,0.975 5.16,3.525 0.113,2.355 -2.31,4.297 -4.583,3.78 -1.552,-0.285 -2.385,-1.815 -3.488,-2.76 -1.62,3.068 1.125,6.502 3.952,7.635 4.208,1.732 9.165,-0.6 11.003,-4.65 -2.265,-1.477 -3.03,-4.125 -1.875,-6.584 1.432,0.337 3.127,0.337 4.2,1.515 1.14,1.117 1.245,2.835 1.845,4.245 0.435,-1.605 1.403,-3.435 0.338,-5.003 -0.758,-1.657 -2.708,-1.792 -4.245,-2.145 0,-20.925 0.06,-41.85 -0.037,-62.775 C 117.8,84.4 123.972,71.951 134.037,64.488 Z m 40.05,-5.858 c 0.495,0.998 3.06,3.045 0.757,3.383 -2.662,-1.47 -5.092,-3.63 -8.242,-3.953 -2.962,-0.413 -6.63,0.66 -7.912,3.6 -0.69,1.635 0.982,2.752 1.823,3.893 -1.012,1.785 -2.198,3.742 -1.74,5.887 0.705,4.223 6.998,6.353 9.78,2.843 2.062,-2.408 0.9,-5.828 1.837,-8.588 0.818,-1.8 5.07,-1.897 4.943,0.345 -1.388,1.845 -3.308,3.292 -4.26,5.452 -1.253,2.513 -1.17,5.385 -1.815,8.062 -0.96,2.791 -4.387,3.601 -5.632,6.195 -1.028,2.617 1.777,4.455 2.573,6.69 -0.863,2.558 -3.308,4.095 -4.95,6.12 5.025,0.795 10.14,0.135 15.15,-0.495 -0.368,-0.345 -1.087,-1.042 -1.448,-1.387 -3.157,0.127 -6.308,0.314 -9.465,0.262 2.318,-1.965 4.598,-4.98 3.27,-8.167 -0.39,-1.552 -2.272,-3.645 -0.39,-4.905 3.188,-1.74 7.042,-1.26 10.357,-0.135 -2.137,0.263 -4.455,0.008 -6.397,1.095 -0.022,0.442 -0.068,1.335 -0.09,1.785 2.16,-0.472 4.335,-0.922 6.555,-1.012 -0.682,0.397 -1.365,0.788 -2.047,1.178 -0.135,0.472 -0.398,1.417 -0.525,1.89 -0.915,-0.181 -1.582,-0.735 -1.995,-1.658 -0.352,0.083 -1.073,0.24 -1.433,0.322 1.208,3.66 1.733,7.883 4.725,10.627 1.74,1.613 4.275,1.021 6.427,1.275 -1.41,0.982 -3.052,1.462 -4.74,1.665 0.083,0.292 0.24,0.878 0.315,1.17 -1.012,0.18 -2.017,0.375 -3.022,0.57 0.742,5.062 6.652,6.63 11.01,6.112 3.248,-0.323 7.485,-2.07 7.65,-5.865 -1.08,-2.453 -2.67,-4.718 -3.052,-7.44 4.815,-0.503 9.795,-0.533 14.363,-2.303 -2.482,-1.74 -6.083,-1.68 -7.95,-4.275 -1.095,-2.355 0.068,-5.235 -1.222,-7.56 -0.922,-1.792 -2.955,-2.43 -4.613,-3.315 0.113,-3.87 -2.198,-6.945 -4.492,-9.788 4.012,0.217 4.68,5.408 8.46,6.03 2.677,0.556 5.94,0.773 8.055,-1.305 2.407,-2.175 2.663,-5.745 1.883,-8.7 -1.11,-3.547 -6.21,-4.163 -8.91,-2.175 -0.855,1.815 -0.84,4.447 -2.992,5.317 -2.318,1.125 -4.568,-0.667 -6.45,-1.837 2.047,-1.44 4.853,-3.135 4.365,-6.083 -0.015,-3.09 -3.847,-4.927 -6.458,-3.607 -1.89,0.667 -2.198,2.888 -3.097,4.417 -2.663,-0.967 -1.02,-5.04 -3.795,-5.775 -2.591,-1.226 -6.476,1.121 -5.164,4.143 z M 59.683,160.863 c 1.282,0.48 2.707,0.705 3.855,1.493 1.417,1.087 1.598,3.007 2.228,4.552 0.6,-1.845 1.448,-4.163 -0.225,-5.723 -1.546,-1.792 -3.968,-1.042 -5.858,-0.322 z m 76.387,0.075 c 1.29,0.51 2.738,0.75 3.87,1.605 1.312,1.035 1.425,2.842 1.965,4.305 0.803,-1.703 1.56,-3.923 0.008,-5.46 -1.463,-1.89 -3.975,-1.26 -5.843,-0.45 z m 89.73,-0.12 c -1.98,1.448 -1.328,4.05 -0.645,6 0.728,-1.62 0.968,-3.75 2.64,-4.763 1.103,-0.562 2.34,-0.81 3.518,-1.199 -1.755,-0.623 -3.916,-1.515 -5.513,-0.038 z m 76.057,0.278 c -1.695,1.567 -0.893,3.915 -0.27,5.767 0.495,-1.252 0.713,-2.64 1.463,-3.78 1.064,-1.507 3.052,-1.643 4.649,-2.235 -1.874,-0.69 -4.282,-1.53 -5.842,0.248 z m -233.73,2.737 c 1.65,0.683 3.863,0.862 4.815,2.618 0.532,1.103 0.788,2.317 1.163,3.487 0.75,-1.883 1.56,-4.312 -0.255,-5.873 -1.56,-1.672 -3.885,-0.862 -5.723,-0.232 z m 59.535,0.067 c 1.478,0.592 3.285,0.758 4.403,2.025 0.982,1.095 1.05,2.663 1.485,4.005 0.802,-1.702 1.62,-3.915 0.112,-5.505 -1.477,-2.025 -4.065,-1.23 -6,-0.525 z m 106.125,0.346 c -1.672,1.583 -0.885,3.893 0.023,5.632 0.397,-1.38 0.472,-2.97 1.515,-4.058 1.103,-1.214 2.85,-1.365 4.305,-1.935 -1.875,-0.719 -4.335,-1.469 -5.843,0.361 z m 59.43,0.105 c -1.492,1.612 -0.562,3.75 0.105,5.498 0.525,-1.598 0.66,-3.57 2.16,-4.62 1.14,-0.742 2.513,-0.953 3.772,-1.433 -1.949,-0.788 -4.574,-1.47 -6.037,0.555 z m -174.54,4.252 c 0.69,2.062 1.47,4.425 3.6,5.422 2.19,1.17 4.703,0.458 6.96,-0.09 -2.108,-0.098 -4.463,0.345 -6.323,-0.907 -1.867,-1.208 -2.46,-3.465 -3.232,-5.408 -0.255,0.248 -0.757,0.736 -1.005,0.983 z m 128.881,-0.99 c -0.675,1.875 -1.238,3.998 -2.963,5.205 -1.852,1.395 -4.305,0.93 -6.457,1.073 2.235,0.54 4.725,1.215 6.892,0.067 2.16,-0.99 2.948,-3.382 3.6,-5.475 -0.27,-0.217 -0.803,-0.652 -1.072,-0.87 z m -114.12,13.912 c -21.75,-0.015 -43.493,0 -65.235,-0.007 -0.008,14.317 0.008,28.627 -0.008,42.945 0,3.54 0.15,7.11 1.035,10.56 2.55,10.545 10.688,19.5 20.91,23.123 7.252,2.722 15.248,2.34 22.59,0.188 -8.64,4.403 -19.058,5.1 -28.117,1.53 0.008,5.46 0,10.913 0.008,16.373 11.197,0 22.395,0.007 33.592,0 0.015,-6.908 -0.03,-13.808 0.022,-20.715 7.305,-4.373 12.907,-11.55 15.12,-19.792 1.53,-5.377 1.2,-11.018 1.23,-16.545 -0.022,-13.725 0.052,-27.45 -0.053,-41.175 -0.195,-3.172 0.66,-6.24 1.845,-9.15 -3.225,3.403 -3.067,8.301 -2.939,12.665 z m 98.407,-12.742 c 0.908,2.453 1.868,4.958 1.8,7.62 0.052,14.565 0,29.137 0.022,43.703 5.362,0 10.732,0 16.095,0 0,-2.978 0,-5.963 0.008,-8.94 -1.673,0.36 -3.337,0.705 -4.995,1.087 0.015,0.653 0.045,1.95 0.06,2.603 -0.525,-0.69 -1.05,-1.388 -1.575,-2.07 -0.158,0.585 -0.473,1.748 -0.63,2.325 -0.12,-0.585 -0.367,-1.77 -0.495,-2.363 -0.413,0.255 -1.238,0.765 -1.65,1.02 0.248,-1.23 0.48,-2.46 0.69,-3.69 0.84,0.352 1.688,0.712 2.527,1.08 1.185,-0.713 2.377,-1.417 3.577,-2.108 -0.6,-0.405 -1.207,-0.78 -1.8,-1.177 1.777,-0.87 2.985,-2.438 4.26,-3.885 0.03,-0.584 0.083,-1.762 0.112,-2.347 -0.84,-0.398 -1.688,-0.795 -2.527,-1.178 -1.853,2.025 -4.462,3.39 -5.723,5.917 -0.495,-0.21 -0.99,-0.42 -1.485,-0.623 -0.502,0.533 -1.005,1.065 -1.508,1.598 0.068,-0.593 0.195,-1.778 0.255,-2.37 -0.458,0.27 -1.373,0.817 -1.83,1.095 0.292,-1.095 0.383,-2.228 0.39,-3.353 1.087,0.248 2.16,0.592 3.188,1.042 1.335,-1.47 2.7,-2.91 4.11,-4.312 -0.922,-0.165 -1.845,-0.337 -2.76,-0.51 1.103,-0.405 2.205,-0.818 3.315,-1.238 -2.977,-2.1 -5.212,-5.317 -8.835,-6.367 0.555,-0.12 1.673,-0.36 2.235,-0.48 -0.488,-0.42 -1.463,-1.26 -1.943,-1.68 l 1.943,0.33 c -0.24,-0.383 -0.728,-1.133 -0.975,-1.515 0.863,0.158 1.725,0.15 2.587,0 0.203,0.9 0.398,1.807 0.593,2.723 2.76,1.448 5.513,5.662 8.895,3.862 2.19,-1.035 -0.217,-2.76 -1.507,-3.083 1.005,-0.27 2.017,-0.532 3.03,-0.78 -1.11,-0.698 -2.205,-1.417 -3.278,-2.167 1.02,-0.615 2.055,-1.208 3.083,-1.815 1.718,0.3 3.472,0.436 5.205,0.143 -0.638,2.333 -1.418,4.83 -0.09,7.103 -0.675,-0.03 -2.032,-0.083 -2.707,-0.112 1.163,1.5 2.887,2.25 4.635,2.85 -1.583,0.42 -3.21,0.645 -4.83,0.855 2.678,1.762 5.483,3.6 8.873,2.978 -0.225,-4.05 -4.515,-6.436 -4.62,-10.462 0.532,-2.573 3.705,-2.115 5.67,-2.498 3.022,1.575 0.825,5.31 1.14,7.905 -2.325,-1.462 -3.863,-3.795 -3.562,-6.645 -0.93,0.368 -2.28,0.488 -2.167,1.822 0.877,3.593 4.567,5.918 4.62,9.833 1.095,0 2.205,0 3.315,0.008 0,-6.353 0,-12.698 0,-19.042 -10.575,-0.007 -21.143,0.008 -31.71,-0.007 0.082,-4.375 0.322,-9.34 -3.031,-12.685 z M 67.49,170.358 c 1.252,1.695 2.677,3.488 4.823,4.042 1.995,0.675 4.08,0.045 6.037,-0.465 -2.505,-0.06 -5.468,0.33 -7.387,-1.665 -1.088,-0.802 -1.861,-2.504 -3.473,-1.912 z m 231.12,-0.413 c -1.192,1.312 -2.333,2.835 -4.058,3.48 -1.755,0.63 -3.667,0.383 -5.497,0.51 1.972,0.473 4.058,1.05 6.068,0.405 1.957,-0.525 3.285,-2.146 4.575,-3.6 -0.271,-0.202 -0.818,-0.599 -1.088,-0.795 z m -30.743,11.521 c 0.06,6.337 0.015,12.675 0.03,19.012 3.188,0 6.382,0.008 9.577,-0.022 -0.532,-0.412 -1.597,-1.23 -2.13,-1.643 1.073,-0.3 2.145,-0.607 3.218,-0.93 -2.685,-2.167 -4.845,-5.31 -8.325,-6.225 0.345,-0.21 1.02,-0.645 1.357,-0.863 -0.21,-0.36 -0.622,-1.08 -0.825,-1.447 0.915,-0.548 1.845,-1.073 2.775,-1.605 0.39,1.343 0.278,3.09 1.718,3.848 1.897,1.305 4.02,3.802 6.48,2.25 -0.758,-0.541 -1.515,-1.065 -2.28,-1.583 1.815,-0.584 2.333,-2.317 2.588,-4.02 1.8,0.338 3.6,0.698 5.392,1.08 -0.165,1.74 -0.33,3.495 0.03,5.228 -0.518,0 -1.537,-0.007 -2.047,-0.015 0.255,3.623 4.162,4.537 6.592,6.427 1.02,0.945 3.51,0.36 3.233,-1.275 -0.42,-3.428 -4.02,-5.542 -4.403,-9.015 -0.232,-1.426 1.103,-2.565 2.438,-2.61 1.597,-0.285 3.953,-1.087 4.657,1.02 0.495,2.078 -0.382,4.283 -0.21,6.427 -2.43,-1.395 -3.998,-3.817 -3.623,-6.697 -1.17,0.3 -2.835,1.11 -2.002,2.603 1.042,3.18 4.62,5.393 4.2,9.03 -0.331,1.643 -2.257,1.763 -3.503,2.302 0.39,0.75 0.78,1.508 1.177,2.265 -0.263,0.42 -0.802,1.253 -1.065,1.672 0.795,0.983 1.912,1.47 3.157,1.703 -0.42,3.465 -3.292,5.565 -6.022,7.26 0.248,0.338 0.742,1.02 0.99,1.357 -0.21,0.397 -0.427,0.78 -0.66,1.163 -0.292,-0.405 -0.87,-1.223 -1.155,-1.627 l -1.012,1.252 c -0.12,-0.368 -0.367,-1.095 -0.488,-1.455 -0.337,0.435 -1.012,1.305 -1.35,1.74 0.127,-0.548 0.383,-1.643 0.51,-2.198 -0.57,0.285 -1.71,0.855 -2.272,1.14 0.787,-2.52 3.487,-2.347 5.52,-3.158 1.057,-0.862 0.742,-2.415 1.02,-3.607 -1.005,0.435 -2.01,0.855 -3.007,1.298 0.817,-2.431 0.502,-4.988 0.458,-7.5 -1.185,1.68 -2.61,3.165 -4.185,4.485 0.413,0.195 1.222,0.592 1.627,0.795 -0.585,0.495 -1.17,0.998 -1.755,1.5 0,3.127 -0.03,6.255 0,9.382 5.295,0 10.598,0 15.9,0 0,-12.922 0,-25.845 0,-38.775 -10.777,0.016 -21.547,-0.029 -32.325,0.031 z m -17.325,6.3 m 35.025,3.525 c 0.218,-0.255 0.645,-0.765 0.855,-1.02 -1.387,0.21 -2.685,-0.263 -3.953,-0.757 0.841,0.892 1.981,1.334 3.098,1.777 z m -3.465,1.732 c 1.095,0.135 2.198,0.285 3.293,0.443 -0.593,-0.473 -1.193,-0.938 -1.793,-1.403 -0.502,0.323 -1.005,0.638 -1.5,0.96 z m -24.967,8.775 c 2.19,2.67 4.312,5.392 6.502,8.062 0.623,1.058 1.89,1.095 2.955,1.372 0.045,-3.15 0.023,-6.292 0.023,-9.435 -3.157,-0.006 -6.323,-0.006 -9.48,0.001 z m 10.755,-0.007 c -0.03,0.863 -0.09,2.595 -0.12,3.465 2.985,0.982 6.195,0.323 9.277,0.45 -1.035,0.555 -2.122,0.998 -3.083,1.657 -0.225,1.2 -0.24,2.431 -0.315,3.645 0.458,0.008 1.373,0.023 1.83,0.03 -0.015,1.373 -0.022,2.737 -0.015,4.11 1.268,-0.15 2.798,0.188 3.765,-0.877 1.215,-1.62 0.698,-3.795 1.005,-5.663 1.575,1.095 0.705,3.218 0.45,4.763 -0.593,2.28 -3.3,2.497 -5.213,2.835 -0.008,1.328 -0.008,2.662 0,3.998 2.52,-0.008 5.048,-0.008 7.575,-0.008 0,-6.135 0,-12.27 0,-18.397 -5.054,-0.008 -10.108,-0.001 -15.156,-0.008 z m 16.44,0.33 c -0.375,1.223 0.052,1.62 1.275,1.192 0.367,-1.222 -0.06,-1.62 -1.275,-1.192 z m -16.582,3.779 c 0.067,1.703 0.105,3.42 0.135,5.123 1.29,0 2.587,0 3.878,-0.007 -0.068,-1.283 -0.09,-2.573 -0.278,-3.84 -1.186,-0.6 -2.498,-0.856 -3.735,-1.276 z m -16.628,1.801 c -0.008,4.17 0,8.34 0,12.51 2.52,0 5.04,0 7.567,0 -0.008,-1.057 -0.008,-2.115 0,-3.165 -2.527,-3.113 -5.04,-6.241 -7.567,-9.345 z m 8.797,4.537 c 0,1.515 -0.008,3.038 -0.008,4.561 1.523,0 3.045,0 4.567,0 0.12,1.725 -0.345,3.592 0.42,5.205 1.395,0.166 2.85,-0.172 4.208,0.308 1.177,2.018 0.3,4.56 0.607,6.78 2.685,-1.455 4.365,-4.065 4.725,-7.08 -1.433,-0.038 -2.873,0.165 -4.298,0 -0.892,-1.575 -0.36,-3.495 -0.517,-5.22 -1.71,0.008 -3.42,0.015 -5.123,0.022 -0.008,-1.53 -0.008,-3.052 -0.008,-4.582 -1.52,-0.001 -3.05,-0.001 -4.573,0.006 z m 9.75,0 c 0,1.515 -0.008,3.038 0,4.561 1.515,0 3.037,0 4.56,0 -0.008,-1.523 -0.008,-3.045 -0.008,-4.567 -1.521,-0.001 -3.036,-0.001 -4.552,0.006 z m -35.895,9.233 c -0.045,3.728 -0.008,7.47 0.458,11.175 5.985,0.038 11.978,-0.015 17.97,0.038 -1.875,-3.442 -2.505,-7.335 -2.392,-11.22 -5.348,0.007 -10.688,-0.001 -16.036,0.007 z M 251,221.411 c 0.015,3.652 0.337,7.478 2.377,10.627 2.708,4.672 7.875,7.462 13.185,7.845 -0.038,-3.022 0.188,-6.052 -0.098,-9.067 -0.33,-0.172 -0.99,-0.517 -1.32,-0.69 -0.54,1.328 -0.488,3.195 -1.897,3.998 -2.078,1.275 -5.175,1.283 -6.975,-0.48 -1.23,-2.257 -0.375,-4.98 -0.907,-7.41 -0.93,-0.585 -1.943,-0.967 -2.91,-1.462 2.168,-0.052 4.335,-0.067 6.51,-0.067 -0.127,-1.095 -0.24,-2.198 -0.345,-3.292 -2.543,-0.002 -5.085,-0.002 -7.62,-0.002 z m 24.502,0.052 c -0.09,0.923 -0.173,1.853 -0.255,2.783 1.972,2.423 3.907,4.86 5.887,7.275 1.613,-3.097 2.017,-6.6 1.95,-10.042 -2.526,-0.016 -5.054,-0.008 -7.582,-0.016 z m 8.918,0.053 c -0.045,2.362 -0.24,4.732 -0.593,7.072 2.677,-0.18 5.363,-0.18 8.04,-0.083 2.01,0.083 3.96,-1.125 4.56,-3.09 -2.647,0.375 -5.212,1.163 -7.882,1.38 0.097,-0.952 0.24,-1.897 0.435,-2.827 0.645,-0.12 1.935,-0.36 2.58,-0.473 -0.923,0.96 -1.875,1.89 -2.828,2.82 2.895,0.188 5.903,-2.573 8.557,-0.555 -1.08,1.643 -2.669,2.775 -4.462,3.518 0.712,1.26 1.462,2.647 3.15,2.632 -0.27,1.155 -0.705,2.258 -0.997,3.413 -0.615,-0.075 -1.215,-0.135 -1.83,-0.188 0.675,-0.578 1.305,-1.215 1.875,-1.898 -1.448,-0.517 -2.812,-1.215 -4.02,-2.16 -1.567,1.792 -3.225,3.653 -5.572,4.388 1.522,-1.763 3.262,-3.345 4.545,-5.31 -2.625,0.675 -5.137,1.77 -7.823,2.22 -3.037,5.033 -8.415,8.4 -14.295,8.805 0.038,6.338 -0.008,12.668 0.022,19.005 12.083,-0.42 23.715,-7.703 28.897,-18.698 3.15,-6.142 3.6,-13.185 3.442,-19.957 -5.263,-0.014 -10.529,0.015 -15.801,-0.014 z m -24.668,0.412 c 0.277,3.045 1.98,5.692 4.688,7.125 -0.188,-2.212 0.735,-4.815 -0.577,-6.758 -1.328,-0.427 -2.746,-0.284 -4.111,-0.367 z m -1.785,10.725 c 1.62,3.127 6.653,1.17 6.068,-2.258 -2.047,-1.433 -3.855,-3.143 -5.302,-5.175 -1.726,2.071 -1.261,5.003 -0.766,7.433 z m 10.05,-2.55 c -0.225,3.285 -0.157,6.585 -0.113,9.878 2.58,-0.375 5.07,-1.14 7.41,-2.273 -2.407,-2.528 -3.892,-6.292 -7.297,-7.605 z m -28.102,16.178 c 2.4,3.195 5.28,6 8.558,8.295 0,7.229 -0.022,14.453 -0.03,21.682 11.79,0.008 23.58,0 35.37,0.008 0.007,-5.482 0,-10.958 0.03,-16.433 -9.105,3.66 -19.597,2.91 -28.297,-1.5 3.638,0.893 7.305,1.717 11.062,1.853 0.015,-4.642 0.008,-9.285 0.008,-13.92 -8.904,0.007 -17.806,-0.023 -26.701,0.015 z M 73.647,284.103 c 17.88,0.188 35.775,0.143 53.655,0.022 -0.765,-3.998 -4.898,-6.78 -8.843,-6.607 -12.008,0.022 -24.008,0.022 -36.015,0 -3.899,-0.082 -8.054,2.58 -8.797,6.585 z m 166.08,0.098 c 17.88,0.007 35.775,0.15 53.655,-0.075 -0.892,-4.095 -5.137,-6.87 -9.202,-6.623 -12.255,0.052 -24.502,-0.022 -36.758,0.03 -3.51,0.383 -7.282,2.903 -7.695,6.668 z"
   id="path26"
   inkscape:connector-curvature="0"
   style="fill:#014189;stroke:#014189;stroke-width:0.0938;stroke-miterlimit:10.43000031" />
	</g>
	<path
   stroke-miterlimit="10.43"
   d="m 83.367,68.523 c 2.025,-2.962 4.83,-5.595 8.07,-7.17 -0.51,0.96 -1.042,1.905 -1.583,2.842 1.883,2.768 4.29,5.108 6.495,7.62 1.013,1.05 1.935,2.288 3.307,2.895 0.562,-0.218 1.68,-0.652 2.243,-0.877 0.143,0.165 0.427,0.495 0.57,0.66 -2.7,2.056 -4.732,5.198 -8.047,6.308 0.51,-0.915 1.042,-1.822 1.59,-2.722 -2.587,-3.57 -5.64,-6.803 -8.738,-9.922 -1.102,-1.329 -2.632,0.216 -3.907,0.366 z"
   id="path30"
   inkscape:connector-curvature="0"
   style="fill:#014189;stroke:#014189;stroke-width:0.0938;stroke-miterlimit:10.43000031" />
	<g
   id="g34">
		<path
   stroke-miterlimit="10.43"
   d="m 274.805,63.618 c 6.113,-1.537 12.683,3.87 12.623,10.095 -0.06,4.268 -3.54,8.01 -7.627,8.865 -6.3,1.268 -12.795,-4.785 -12.052,-11.145 0.374,-3.765 3.471,-6.892 7.056,-7.815 z m 3.547,2.625 c -3.787,1.351 -6.84,4.973 -7.402,8.97 -0.525,3.173 2.962,6.053 5.955,4.695 3.66,-1.598 6.638,-5.22 7.133,-9.233 0.45,-3.029 -2.821,-5.632 -5.686,-4.432 z"
   id="path32"
   inkscape:connector-curvature="0"
   style="fill:#014189;stroke:#014189;stroke-width:0.0938;stroke-miterlimit:10.43000031" />
	</g>
	<path
   stroke-miterlimit="10.43"
   d="m 73.775,77.71 c 1.838,-1.837 3.007,-4.583 5.558,-5.55 -0.428,1.042 -0.907,2.07 -1.38,3.105 3.142,2.888 6.548,5.482 9.938,8.062 1.448,1.5 3.083,-0.368 4.575,-0.773 -1.95,3.166 -4.425,6.008 -7.117,8.558 0.262,-1.17 0.615,-2.317 0.997,-3.45 -3.067,-3.06 -6.615,-5.58 -9.952,-8.317 2.25,5.032 4.897,9.885 7.05,14.97 C 78.277,93.61 73.409,91.6 68.369,90.348 c 2.94,2.527 5.565,5.482 8.865,7.552 1.215,-0.3 2.385,-0.772 3.578,-1.132 -1.673,2.31 -3.375,4.665 -5.618,6.473 -0.022,-1.343 1.058,-3.008 -0.195,-4.058 -2.948,-3.06 -5.858,-6.255 -9.3,-8.753 -1.155,0.345 -2.168,1.021 -3.255,1.515 1.073,-2.197 2.768,-3.99 4.335,-5.834 4.208,1.08 8.408,2.175 12.615,3.255 C 77.525,85.481 75.62,81.603 73.775,77.71 Z"
   id="path36"
   inkscape:connector-curvature="0"
   style="fill:#014189;stroke:#014189;stroke-width:0.0938;stroke-miterlimit:10.43000031" />
	<path
   stroke-miterlimit="10.43"
   d="m 178.708,83.388 c 3.097,-3.413 7.905,-5.535 12.502,-4.357 1.92,0.472 2.228,2.58 2.37,4.23 -1.38,-1.035 -2.617,-2.678 -4.515,-2.595 -3.675,-0.241 -7.088,1.274 -10.357,2.722 z"
   id="path38"
   inkscape:connector-curvature="0"
   style="fill:#014189;stroke:#014189;stroke-width:0.0938;stroke-miterlimit:10.43000031" />
	<path
   stroke-miterlimit="10.43"
   d="m 180.357,85.713 c 1.89,-1.335 4.305,-1.965 6.585,-1.44 -0.69,0.203 -2.07,0.593 -2.76,0.795 -0.263,0.743 -0.533,1.485 -0.81,2.228 -1.005,-0.533 -2.009,-1.058 -3.015,-1.583 z"
   id="path40"
   inkscape:connector-curvature="0"
   style="fill:#014189;stroke:#014189;stroke-width:0.0938;stroke-miterlimit:10.43000031" />
	<path
   stroke-miterlimit="10.43"
   d="m 290.623,83.928 c 2.482,-1.35 5.985,0.382 6.24,3.24 0.57,3.367 -3.465,6.24 -6.443,4.507 -3.128,-1.439 -2.903,-6.412 0.203,-7.747 z"
   id="path42"
   inkscape:connector-curvature="0"
   style="fill:#014189;stroke:#014189;stroke-width:0.0938;stroke-miterlimit:10.43000031" />
	<path
   stroke-miterlimit="10.43"
   d="m 177.71,92.32 c 1.2,-0.57 2.482,-0.945 3.75,-1.342 0.15,0.24 0.458,0.728 0.607,0.975 -1.447,0.188 -2.902,0.36 -4.357,0.367 z"
   id="path44"
   inkscape:connector-curvature="0"
   style="fill:#014189;stroke:#014189;stroke-width:0.0938;stroke-miterlimit:10.43000031" />
	<g
   id="g48">
		<path
   stroke-miterlimit="10.43"
   d="m 304.708,90.476 c 2.482,2.693 4.252,5.948 6.27,8.993 1.178,1.875 2.25,4.763 0.226,6.472 -1.673,1.748 -4.192,0.63 -5.835,-0.517 0.277,1.395 0.893,2.842 0.472,4.282 -0.667,2.31 -3.517,3.698 -5.745,2.745 -2.16,-0.863 -3.578,-2.82 -4.89,-4.643 -1.725,-2.587 -3.54,-5.123 -5.01,-7.875 1.05,0.45 2.04,1.012 3.105,1.433 1.417,-0.27 2.542,-1.29 3.758,-2.018 2.587,-1.853 5.453,-3.337 7.837,-5.482 -0.031,-1.133 -0.091,-2.265 -0.188,-3.39 z m -2.228,10.147 c 1.208,1.515 2.962,3.825 5.152,2.535 2.663,-1.163 1.628,-4.343 0.113,-6.008 -1.778,1.133 -3.525,2.295 -5.265,3.473 z m -6.248,4.598 c -0.6,1.185 0.413,2.445 1.305,3.15 2.01,1.492 5.138,-0.045 5.625,-2.385 0.18,-1.763 -0.885,-3.285 -1.598,-4.8 -1.821,1.267 -3.914,2.28 -5.332,4.035 z"
   id="path46"
   inkscape:connector-curvature="0"
   style="fill:#014189;stroke:#014189;stroke-width:0.0938;stroke-miterlimit:10.43000031" />
	</g>
	<path
   stroke-miterlimit="10.43"
   d="m 178.085,94.886 c 1.77,-0.428 3.562,-0.743 5.377,-0.915 -1.267,1.77 -3.712,2.909 -5.377,0.915 z"
   id="path50"
   inkscape:connector-curvature="0"
   style="fill:#014189;stroke:#014189;stroke-width:0.0938;stroke-miterlimit:10.43000031" />
	<path
   stroke-miterlimit="10.43"
   d="m 57.867,98.433 c 1.537,0.78 3.068,1.583 4.53,2.505 -1.298,0.248 -2.61,0.225 -3.907,0.367 -1.627,0.968 -2.34,2.865 -3.315,4.403 1.77,1.133 3.577,2.22 5.385,3.308 0.72,-1.252 1.477,-2.482 2.047,-3.803 -0.397,-0.975 -0.833,-1.935 -1.297,-2.872 2.197,0.847 4.597,1.785 5.932,3.87 -0.705,-0.083 -2.122,-0.248 -2.828,-0.322 -0.87,1.275 -1.717,2.572 -2.55,3.885 1.98,1.005 3.825,2.85 6.135,2.857 1.312,-1.192 2.242,-2.774 2.775,-4.455 0.052,-1.694 -1.245,-3.112 -1.357,-4.814 1.455,1.095 2.775,2.34 4.095,3.584 -2.13,3.541 -4.298,7.065 -6.397,10.628 -0.63,1.087 -1.38,2.122 -2.377,2.91 0.135,-1.103 0.345,-2.189 0.45,-3.3 -1.26,-1.522 -3.135,-2.325 -4.762,-3.375 -2.37,-1.335 -4.568,-3.038 -7.17,-3.885 -1.05,0.435 -2.017,1.05 -3.045,1.537 2.271,-4.501 5.122,-8.678 7.656,-13.028 z"
   id="path52"
   inkscape:connector-curvature="0"
   style="fill:#014189;stroke:#014189;stroke-width:0.0938;stroke-miterlimit:10.43000031" />
	<g
   id="g56">
		<path
   stroke-miterlimit="10.43"
   d="m 301.25,116.831 c 1.515,0.652 2.895,1.927 4.65,1.792 5.272,-0.157 10.53,-0.592 15.795,-0.818 0.21,0.308 0.623,0.916 0.833,1.223 -3.562,4.08 -7.245,8.047 -10.703,12.217 -1.2,1.192 -0.667,2.992 -0.81,4.485 -2.311,-2.536 -3.473,-5.888 -4.65,-9.053 0.772,0.555 1.538,1.117 2.303,1.688 1.005,-0.99 1.995,-1.988 2.978,-2.993 -0.817,-1.665 -1.635,-3.323 -2.453,-4.973 -1.357,0.203 -2.708,0.405 -4.05,0.63 0.015,1.042 0.03,2.085 0.038,3.127 -1.764,-2.165 -2.881,-4.76 -3.931,-7.325 z m 9.547,3.232 c 0.66,1.335 1.32,2.663 1.98,3.998 1.403,-1.522 2.805,-3.053 4.2,-4.59 -2.062,0.195 -4.117,0.39 -6.18,0.592 z"
   id="path54"
   inkscape:connector-curvature="0"
   style="fill:#014189;stroke:#014189;stroke-width:0.0938;stroke-miterlimit:10.43000031" />
	</g>
	<g
   id="g60">
		<path
   stroke-miterlimit="10.43"
   d="m 44.052,123.858 c 1.56,-3.105 4.657,-5.962 8.377,-5.482 5.198,0.435 9.157,5.76 7.935,10.882 -1.05,4.485 -2.97,8.85 -5.483,12.713 -0.022,-0.78 -0.082,-2.34 -0.105,-3.12 -0.998,-1.35 -2.805,-1.74 -4.23,-2.498 -2.835,-1.125 -5.482,-2.82 -8.49,-3.45 -0.968,0.555 -1.838,1.245 -2.76,1.852 1.269,-3.757 2.986,-7.349 4.756,-10.897 z m -0.554,4.62 c 3.967,1.905 7.942,3.84 12.052,5.408 1.935,0.9 2.752,-1.703 3,-3.105 0.825,-4.98 -4.785,-8.153 -9.098,-8.175 -3.269,0 -4.994,3.194 -5.954,5.872 z"
   id="path58"
   inkscape:connector-curvature="0"
   style="fill:#014189;stroke:#014189;stroke-width:0.0938;stroke-miterlimit:10.43000031" />
	</g>
	<path
   stroke-miterlimit="10.43"
   d="m 90.41,121.511 c 2.182,-0.9 4.515,-1.312 6.825,-1.763 0.105,4.853 -0.203,9.72 0.135,14.565 0.75,0.607 1.53,1.185 2.325,1.732 -3.067,0.105 -6.15,0.135 -9.218,-0.045 0.87,-0.525 1.755,-1.027 2.648,-1.53 -0.105,-4.035 0.382,-8.13 -0.248,-12.127 -0.615,-0.202 -1.852,-0.622 -2.467,-0.832 z"
   id="path62"
   inkscape:connector-curvature="0"
   style="fill:#014189;stroke:#014189;stroke-width:0.0938;stroke-miterlimit:10.43000031" />
	<path
   stroke-miterlimit="10.43"
   d="m 103.7,120.011 c 2.722,-0.008 5.445,-0.008 8.167,0 -0.165,0.99 -0.338,1.987 -0.502,2.985 -2.198,0 -4.388,0 -6.578,0 -0.18,1.08 -0.36,2.16 -0.54,3.247 2.498,-0.63 5.79,-0.922 7.44,1.508 1.905,2.49 0.292,6.03 -2.25,7.343 -2.408,1.763 -5.445,1.335 -7.995,0.18 0.458,-0.907 0.953,-1.807 1.485,-2.67 1.387,0.825 2.655,2.018 4.32,2.243 2.317,-1.425 1.807,-5.708 -0.758,-6.608 -1.268,-0.292 -2.557,-0.03 -3.833,0.023 0.369,-2.746 0.707,-5.499 1.044,-8.251 z"
   id="path64"
   inkscape:connector-curvature="0"
   style="fill:#014189;stroke:#014189;stroke-width:0.0938;stroke-miterlimit:10.43000031" />
	<path
   stroke-miterlimit="10.43"
   d="m 254.113,125.043 c 0.195,-1.666 0.405,-3.338 0.622,-5.003 3.825,0.008 7.643,-0.03 11.468,0.045 -2.483,5.325 -4.897,10.695 -7.215,16.103 -1.335,0.053 -2.663,0.112 -3.99,0.158 2.745,-4.343 5.475,-8.685 7.942,-13.192 -3.053,0.036 -6.548,-0.676 -8.827,1.889 z"
   id="path66"
   inkscape:connector-curvature="0"
   style="fill:#014189;stroke:#014189;stroke-width:0.0938;stroke-miterlimit:10.43000031" />
	<path
   stroke-miterlimit="10.43"
   d="m 268.865,120.011 c 2.715,-0.008 5.43,-0.008 8.145,0 -0.165,0.99 -0.338,1.987 -0.503,2.985 -2.19,0 -4.38,0 -6.57,0 -0.18,1.08 -0.36,2.152 -0.54,3.232 1.867,-0.315 3.892,-0.855 5.692,0.067 2.34,0.983 3.315,4.103 2.018,6.278 -1.935,3.36 -6.922,5.055 -10.185,2.565 -0.232,-1.013 0.742,-1.71 1.147,-2.535 1.56,0.697 3.623,3.315 5.265,1.478 0.952,-1.823 0.66,-4.478 -1.17,-5.647 -1.387,-0.6 -2.932,-0.217 -4.38,-0.18 0.421,-2.738 0.736,-5.499 1.081,-8.243 z"
   id="path68"
   inkscape:connector-curvature="0"
   style="fill:#014189;stroke:#014189;stroke-width:0.0938;stroke-miterlimit:10.43000031" />
	<path
   stroke-miterlimit="10.43"
   d="m 322.07,131.38 c 1.837,-0.757 3.758,-1.312 5.67,-1.875 0.143,2.752 1.343,5.258 2.272,7.8 1.065,2.768 1.808,5.723 3.645,8.123 -1.837,0.788 -3.667,1.59 -5.572,2.189 0.712,-1.612 3.022,-2.797 2.333,-4.785 -0.203,-0.945 -0.495,-1.867 -0.758,-2.797 -4.5,1.83 -9.285,3.06 -13.59,5.317 -0.157,1.208 -0.255,2.43 -0.3,3.66 -2.003,-3.218 -3,-6.922 -4.155,-10.485 1.305,0.697 2.333,2.842 4.073,2.084 4.208,-1.35 8.288,-3.052 12.45,-4.537 -0.675,-1.215 -1.08,-2.647 -2.092,-3.623 -1.336,-0.366 -2.701,-0.545 -3.976,-1.071 z"
   id="path70"
   inkscape:connector-curvature="0"
   style="fill:#014189;stroke:#014189;stroke-width:0.0938;stroke-miterlimit:10.43000031" />
	<path
   stroke-miterlimit="10.43"
   d="m 145.73,144.866 c 0.435,-3.015 1.268,-6.758 4.552,-7.837 -0.682,3.104 -2.467,6.592 -0.472,9.584 1.68,2.565 5.152,1.718 7.695,1.583 -1.38,3.435 -3.038,7.155 -6.285,9.218 -1.665,1.155 -3.952,0.165 -4.612,-1.65 -1.501,-3.406 -1.245,-7.291 -0.878,-10.898 z"
   id="path72"
   inkscape:connector-curvature="0"
   style="fill:#014189;stroke:#014189;stroke-width:0.0938;stroke-miterlimit:10.43000031" />
	<g
   id="g76">
		<path
   stroke-miterlimit="10.43"
   d="m 50.135,146.763 c 1.905,0 2.902,-1.792 4.177,-2.896 -0.713,3.331 -1.238,6.916 -3.255,9.743 -0.09,-0.675 -0.255,-2.018 -0.338,-2.692 -1.417,0.052 -2.835,0.12 -4.252,0.194 -0.532,1.77 -1.072,3.541 -1.605,5.317 1.14,0.75 2.28,1.5 3.442,2.228 0.727,-0.735 1.47,-1.448 2.235,-2.153 -0.51,2.715 -1.327,5.362 -2.355,7.92 -0.638,-1.597 -0.803,-3.525 -2.28,-4.642 -3.892,-3.383 -7.89,-6.645 -11.827,-9.975 0.015,-0.383 0.038,-1.147 0.052,-1.538 5.333,-0.546 10.681,-0.921 16.006,-1.506 z m -11.55,4.995 c 1.635,1.283 3.278,2.55 4.92,3.825 0.428,-1.433 0.863,-2.85 1.29,-4.275 -2.07,0.143 -4.14,0.293 -6.21,0.45 z"
   id="path74"
   inkscape:connector-curvature="0"
   style="fill:#014189;stroke:#014189;stroke-width:0.0938;stroke-miterlimit:10.43000031" />
	</g>
	<path
   stroke-miterlimit="10.43"
   d="m 204.717,153.378 c 3.638,-3.435 11.198,-3.367 12.683,2.153 0.12,2.175 -2.002,1.748 -3.488,1.567 -0.645,-1.38 -0.87,-3.308 -2.512,-3.885 -2.168,-0.885 -4.462,-0.015 -6.683,0.165 z"
   id="path78"
   inkscape:connector-curvature="0"
   style="fill:#014189;stroke:#014189;stroke-width:0.0938;stroke-miterlimit:10.43000031" />
	<g
   id="g82">
		<path
   stroke-miterlimit="10.43"
   d="m 318.762,160 c -0.885,-2.618 -1.942,-5.302 -1.86,-8.107 1.065,0.938 1.8,2.49 3.337,2.737 5.19,1.125 10.53,1.448 15.72,2.573 0.337,0.27 1.012,0.817 1.35,1.095 -4.245,3.285 -8.625,6.39 -12.877,9.66 -1.56,1.05 -1.792,3.023 -2.498,4.62 -0.93,-3.172 -2.04,-6.345 -2.265,-9.667 0.51,0.45 1.53,1.342 2.04,1.785 1.177,-0.63 2.265,-1.425 3.368,-2.182 -0.473,-1.792 -0.93,-3.585 -1.402,-5.385 -1.335,-0.052 -2.67,-0.105 -4.005,-0.135 -0.278,1.004 -0.585,2.009 -0.908,3.006 z m 6.555,-2.857 c 0.368,1.44 0.743,2.888 1.11,4.335 1.695,-1.208 3.39,-2.423 5.078,-3.637 -2.063,-0.24 -4.125,-0.473 -6.188,-0.698 z"
   id="path80"
   inkscape:connector-curvature="0"
   style="fill:#014189;stroke:#014189;stroke-width:0.0938;stroke-miterlimit:10.43000031" />
	</g>
	<path
   stroke-miterlimit="10.43"
   d="m 205.505,157.976 c 1.042,2.46 1.433,5.152 2.61,7.568 0.99,2.272 2.737,4.117 3.72,6.397 0.72,2.828 -2.73,3.728 -3.683,5.963 -1.17,0.584 -2.347,1.162 -3.45,1.86 -2.677,0.353 -5.355,0.682 -8.002,1.185 0.435,-1.163 0.667,-2.43 1.312,-3.503 1.155,-0.697 2.468,-1.125 3.577,-1.905 1.538,-1.17 1.688,-3.225 2.205,-4.935 3.631,-3.233 1.606,-8.46 1.711,-12.63 z"
   id="path84"
   inkscape:connector-curvature="0"
   style="fill:#014189;stroke:#014189;stroke-width:0.0938;stroke-miterlimit:10.43000031" />
	<path
   stroke-miterlimit="10.43"
   d="m 30.102,178.548 c -2.7,-4.358 -1.522,-9.811 0.413,-14.22 1.74,0.143 3.488,0.27 5.228,0.45 -0.135,0.255 -0.39,0.757 -0.525,1.012 -1.597,0.488 -3.525,0.878 -4.373,2.513 -1.8,2.902 -0.682,7.103 2.468,8.55 4.058,2.265 11.055,1.785 12.345,-3.518 1.05,-3.382 -2.407,-5.295 -3.69,-7.912 1.913,0.607 3.713,1.5 5.46,2.49 -0.06,4.357 -0.255,9.337 -3.623,12.562 -3.833,3.871 -11.018,2.723 -13.703,-1.927 z"
   id="path86"
   inkscape:connector-curvature="0"
   style="fill:#014189;stroke:#014189;stroke-width:0.0938;stroke-miterlimit:10.43000031" />
	<path
   stroke-miterlimit="10.43"
   d="m 163.625,165.573 c 4.05,-1.155 8.52,-0.548 11.97,1.905 0.113,1.905 -0.18,4.013 1.013,5.655 1.417,2.46 4.29,3.286 6.87,3.893 0.525,2.61 1.883,4.92 4.08,6.465 -1.493,0.21 -3.068,0.833 -4.538,0.157 -2.01,-0.63 -3.105,-2.828 -5.228,-3.188 -1.515,-0.405 -3.083,-0.938 -4.103,-2.205 -2.415,-2.662 -2.355,-6.495 -2.37,-9.87 -2.19,-1.2 -4.605,-1.808 -7.08,-1.973 -0.156,-0.209 -0.457,-0.629 -0.614,-0.839 z"
   id="path88"
   inkscape:connector-curvature="0"
   style="fill:#014189;stroke:#014189;stroke-width:0.0938;stroke-miterlimit:10.43000031" />
	<path
   stroke-miterlimit="10.43"
   d="m 335.802,170.988 c 1.59,-0.877 1.958,-2.782 2.828,-4.237 0.705,3.367 1.41,6.765 1.417,10.223 -0.645,-0.817 -1.26,-1.65 -1.86,-2.49 -3.405,1.995 -6.705,4.155 -10.05,6.24 3.78,0.743 7.53,1.665 11.355,2.175 0.39,-0.96 0.705,-1.95 1.147,-2.887 0.765,2.708 1.155,5.497 1.425,8.294 -1.328,-1.14 -2.37,-2.752 -4.117,-3.277 -4.988,-1.71 -10.223,-2.573 -15.24,-4.185 -0.067,-0.315 -0.195,-0.953 -0.263,-1.268 4.291,-3.098 8.963,-5.633 13.358,-8.588 z"
   id="path90"
   inkscape:connector-curvature="0"
   style="fill:#014189;stroke:#014189;stroke-width:0.0938;stroke-miterlimit:10.43000031" />
	<path
   stroke-miterlimit="10.43"
   d="m 242.12,186.416 c -2.175,-0.292 -1.958,-3.533 -0.143,-4.2 0.12,1.395 0.165,2.797 0.143,4.2 z"
   id="path92"
   inkscape:connector-curvature="0"
   style="fill:#014189;stroke:#014189;stroke-width:0.0938;stroke-miterlimit:10.43000031" />
	<path
   stroke-miterlimit="10.43"
   d="m 258.815,183.101 c 0.375,0 1.133,0 1.508,0 0,1.073 0,2.145 0,3.225 -0.375,0 -1.133,0 -1.508,0 -0.007,-1.08 -0.007,-2.153 0,-3.225 z"
   id="path94"
   inkscape:connector-curvature="0"
   style="fill:#014189;stroke:#014189;stroke-width:0.0938;stroke-miterlimit:10.43000031" />
	<g
   id="g98">
		<path
   stroke-miterlimit="10.43"
   d="m 185.022,187.69 c 7.778,-2.137 15.697,-4.492 23.857,-3.93 0.728,0.922 1.485,1.815 2.258,2.708 -0.998,0.832 -1.973,1.695 -2.918,2.58 -1.237,-1.65 -2.782,-3.413 -5.025,-3.413 -2.692,-0.48 -4.507,1.852 -5.805,3.833 -1.935,-0.263 -4.02,-0.803 -5.873,0.127 -2.407,1.103 -3.405,3.907 -3.548,6.39 -0.292,4.447 1.463,8.67 3.398,12.569 -1.755,5.123 -3.083,10.598 -2.107,16.021 0.847,5.67 4.087,10.507 6.577,15.54 3.315,7.38 5.175,15.292 7.808,22.913 -0.173,-8.018 -1.365,-16.095 -4.028,-23.678 -2.468,-5.843 -6.075,-11.445 -6.353,-17.97 -0.532,-7.155 3.938,-13.297 5.002,-20.182 0,-1.71 -1.53,-2.715 -2.677,-3.698 -1.492,1.605 -1.882,3.803 -2.498,5.828 -0.795,-2.775 -2.085,-5.655 -1.485,-8.603 0.458,-2.302 3.458,-2.175 5.055,-1.192 2.423,1.597 3.69,4.41 4.627,7.058 0.99,3.307 -1.252,6.397 -1.32,9.63 0.78,1.792 2.775,2.512 4.298,3.547 -1.275,3.412 -2.527,7.118 -1.68,10.785 0.848,3.735 6.188,5.438 9.015,2.857 0.218,-1.62 0.083,-3.27 0.375,-4.875 0.645,-2.73 2.318,-5.1 2.828,-7.867 0.008,-1.831 -0.57,-3.593 -0.825,-5.393 -0.427,-0.135 -1.275,-0.405 -1.703,-0.54 -0.292,0.99 -0.72,1.935 -1.5,2.647 -0.113,-1.027 -0.195,-2.055 -0.24,-3.083 -0.345,-0.42 -1.042,-1.267 -1.387,-1.688 1.8,0.533 3.593,1.11 5.393,1.658 0.502,-2.302 -0.435,-4.388 -1.522,-6.337 -0.345,-3.75 2.782,-6.975 6.172,-8.13 1.583,1.935 1.688,4.439 1.41,6.81 -0.817,-1.23 -1.207,-3.66 -3.157,-3.397 -1.507,-0.023 -2.468,1.792 -1.792,3.083 1.853,5.385 3.728,10.777 5.115,16.305 1.298,6.78 -1.965,13.163 -3.705,19.53 -2.228,8.483 -4.192,17.303 -3.233,26.115 1.778,-11.28 4.425,-22.455 8.805,-33.03 -0.397,13.013 -1.943,26.047 -5.16,38.67 -1.402,5.565 -4.485,10.567 -8.468,14.647 -11.61,-7.17 -19.92,-19.192 -22.815,-32.498 -1.68,-7.89 -1.973,-15.998 -2.197,-24.038 -0.232,-12.763 -0.764,-25.619 1.028,-38.309 z m 11.775,24.038 c -1.065,1.522 -1.635,3.353 -1.395,5.22 0.338,4.23 -0.465,8.887 1.92,12.675 2.002,3.263 5.76,4.68 9.075,6.218 -0.968,2.092 -2.085,4.245 -2.025,6.615 0.15,2.723 1.365,5.213 2.422,7.68 -0.112,-3.285 -0.72,-6.698 0.383,-9.885 1.672,-3.78 5.025,-6.375 7.837,-9.263 2.205,-2.152 2.64,-5.31 3.42,-8.137 0.615,-2.618 1.665,-5.393 0.652,-8.047 -0.323,-0.833 -1.058,-2.647 -2.092,-1.373 -1.733,4.312 -1.11,9.233 -3.075,13.478 -1.163,2.58 -3.495,4.312 -5.415,6.292 -2.94,-1.538 -6.63,-2.521 -8.317,-5.647 -2.137,-4.32 -0.698,-9.322 -2.018,-13.822 -0.336,-0.729 -0.344,-1.944 -1.372,-2.004 z m 13.095,26.115 c 2.348,3.667 1.665,8.13 1.177,12.21 2.16,-4.373 3.585,-9.811 0.698,-14.22 -0.63,0.667 -1.26,1.335 -1.875,2.01 z"
   id="path96"
   inkscape:connector-curvature="0"
   style="fill:#014189;stroke:#014189;stroke-width:0.0938;stroke-miterlimit:10.43000031" />
	</g>
	<path
   stroke-miterlimit="10.43"
   d="m 282.177,185.036 c 0.69,0.728 1.38,1.462 2.077,2.197 l 0.983,-1.762 1.192,1.709 c -1.305,0.623 -2.76,0.623 -4.17,0.548 -0.021,-0.675 -0.067,-2.018 -0.082,-2.692 z"
   id="path100"
   inkscape:connector-curvature="0"
   style="fill:#014189;stroke:#014189;stroke-width:0.0938;stroke-miterlimit:10.43000031" />
	<g
   id="g104">
		<path
   stroke-miterlimit="10.43"
   d="m 40.61,189.281 c 1.778,-0.487 2.498,-2.34 3.66,-3.585 -0.39,3.292 0.33,6.975 -1.32,9.968 -0.21,-0.623 -0.623,-1.875 -0.825,-2.498 -1.38,0.36 -2.752,0.743 -4.125,1.125 -0.143,1.845 -0.278,3.69 -0.42,5.542 1.29,0.487 2.565,1.058 3.915,1.35 0.352,-0.623 1.057,-1.86 1.41,-2.482 0.593,2.55 0.008,5.167 -0.127,7.732 h -0.84 c -0.458,-1.388 -1.005,-2.888 -2.483,-3.488 -4.027,-2.242 -8.19,-4.229 -12.255,-6.39 -1.012,-0.412 -1.68,-1.26 -2.175,-2.189 5.16,-1.793 10.417,-3.301 15.585,-5.085 z m -10.065,7.342 c 1.83,0.922 3.69,1.792 5.542,2.67 0.113,-1.493 0.218,-2.978 0.33,-4.463 -1.965,0.593 -3.922,1.178 -5.872,1.793 z"
   id="path102"
   inkscape:connector-curvature="0"
   style="fill:#014189;stroke:#014189;stroke-width:0.0938;stroke-miterlimit:10.43000031" />
	</g>
	<path
   stroke-miterlimit="10.43"
   d="m 287.495,188.568 c -1.853,0.068 -0.12,-2.76 1.012,-1.972 0.203,0.892 -0.134,1.552 -1.012,1.972 z"
   id="path106"
   inkscape:connector-curvature="0"
   style="fill:#014189;stroke:#014189;stroke-width:0.0938;stroke-miterlimit:10.43000031" />
	<path
   stroke-miterlimit="10.43"
   d="m 215.99,187.555 c 1.087,-0.27 2.175,-0.547 3.255,-0.839 1.695,1.432 2.947,3.277 3.69,5.362 -1.8,-0.667 -3.675,-1.133 -5.61,-1.042 -0.435,-1.17 -0.877,-2.333 -1.335,-3.481 z"
   id="path108"
   inkscape:connector-curvature="0"
   style="fill:#014189;stroke:#014189;stroke-width:0.0938;stroke-miterlimit:10.43000031" />
	<path
   stroke-miterlimit="10.43"
   d="m 243.605,187.255 c 0.458,-0.075 1.38,-0.217 1.837,-0.285 -0.022,0.517 -0.067,1.552 -0.083,2.078 0.615,0.255 1.845,0.765 2.46,1.02 -1.867,-0.188 -4.094,-0.495 -4.214,-2.813 z"
   id="path110"
   inkscape:connector-curvature="0"
   style="fill:#014189;stroke:#014189;stroke-width:0.0938;stroke-miterlimit:10.43000031" />
	<g
   id="g114">
		<path
   stroke-miterlimit="10.43"
   d="m 89.105,187.788 c 1.83,-0.263 3.578,0.285 5.34,0.637 2.01,-0.314 3.96,-1.11 6.022,-1.035 1.703,0.915 3.285,2.04 5.01,2.925 -0.037,0.728 -0.082,1.455 -0.127,2.19 -1.312,0.263 -2.64,0.435 -3.922,0.84 -0.998,0.967 -1.215,2.453 -1.792,3.675 1.823,-0.352 3.645,-0.735 5.475,-1.042 0.008,0.833 0.015,1.665 0.015,2.498 -1.403,0.292 -3.87,0 -4.005,1.98 0.592,2.16 3.337,3.172 5.332,2.377 2.265,-0.802 3.473,-3.03 4.905,-4.792 0.3,1.613 0.555,3.232 0.742,4.868 2.798,-2.633 6.127,-4.71 8.7,-7.545 0.157,-2.595 0.78,-5.205 2.857,-6.944 -0.15,0.824 -0.45,2.467 -0.6,3.292 1.402,-0.69 2.812,-1.365 4.252,-1.979 -0.84,1.169 -1.695,2.332 -2.558,3.502 1.462,-0.135 2.933,-0.247 4.395,-0.314 -1.343,0.877 -2.685,1.762 -3.968,2.729 1.373,0.585 2.843,0.825 4.297,1.073 -1.372,1.275 -3.135,1.8 -4.972,1.882 -2.873,3.623 -6.278,6.735 -9.96,9.503 1.042,3.367 5.22,0.938 7.103,-0.473 -0.157,1.388 0.188,3.023 -0.788,4.185 -1.583,1.943 -4.312,1.98 -6.57,2.4 2.61,2.55 5.033,5.272 7.433,8.01 1.605,-3.038 5.453,-2.775 7.5,-0.36 -1.29,0.128 -2.587,0.24 -3.878,0.338 1.478,0.968 2.888,2.13 3.24,3.968 -1.05,-0.608 -2.085,-1.238 -3.12,-1.868 -0.217,1.628 -0.488,3.263 -0.945,4.845 -0.998,-1.32 -1.628,-3.877 -3.78,-3.188 -0.645,0.698 -1.2,1.478 -1.65,2.325 -0.45,-1.485 -0.712,-3.038 -1.32,-4.462 -4.478,-1.508 -8.595,-3.953 -11.85,-7.41 -2.88,1.68 -6.525,1.447 -9.225,3.383 2.79,0.652 5.835,0.712 8.333,2.28 1.898,1.08 3.18,2.888 4.65,4.455 1.14,1.357 3.112,1.192 4.672,1.635 -1.155,2.399 -3.66,3.232 -6.142,3.449 2.265,1.65 4.417,3.45 6.622,5.183 1.665,-0.87 3.285,-1.987 5.19,-2.25 1.44,-0.067 2.22,1.291 3.142,2.153 -1.2,0.038 -2.392,0.075 -3.585,0.12 0.9,1.612 1.657,3.315 2.205,5.085 -1.132,-0.562 -2.227,-1.208 -3.367,-1.748 -0.127,1.373 -0.315,2.76 -0.75,4.08 -0.675,-1.29 -1.335,-2.67 -2.715,-3.33 -0.705,0.982 -1.44,1.942 -2.25,2.857 -0.233,-1.62 0.667,-4.583 -1.702,-4.912 -5.002,-1.208 -10.853,-1.838 -14.1,-6.368 1.132,-0.48 2.25,-1.005 3.397,-1.455 -3.337,-2.46 -6.225,-5.468 -8.498,-8.94 1.155,3.18 1.35,6.532 1.08,9.885 -0.3,1.965 1.147,3.405 2.407,4.665 -3,0.323 -5.76,-0.915 -7.83,-3.045 0.488,2.737 0.51,5.88 2.512,8.055 1.868,2.055 5.115,0.907 7.215,2.527 1.29,0.983 1.455,2.723 1.965,4.155 -1.238,-0.802 -2.483,-1.598 -3.735,-2.37 0.225,0.938 0.667,2.82 0.885,3.757 -1.027,-0.78 -2.062,-1.56 -3.097,-2.325 0.045,0.803 0.135,2.407 0.18,3.21 -0.915,-1.439 -1.822,-2.887 -2.805,-4.275 -1.103,1.118 -1.657,2.58 -2.093,4.073 -2.25,-1.395 -0.998,-3.765 0.465,-5.213 -5.745,-3.255 -12.435,-8.032 -11.82,-15.51 1.417,0.255 3.225,1.335 4.327,-0.143 1.253,-2.527 -0.93,-4.95 -2.385,-6.825 1.29,-0.458 2.573,-0.953 3.855,-1.433 0.09,-0.533 0.262,-1.59 0.352,-2.115 -2.415,-0.301 -5.377,-0.765 -6.525,-3.248 -1.567,-3.607 0.592,-7.387 2.655,-10.297 2.235,-3.487 5.745,-6.698 5.693,-11.137 -0.165,-2.048 -2.445,-2.213 -3.998,-2.445 -0.022,2.07 -0.33,4.305 -2.062,5.678 -2.092,1.717 -4.41,3.375 -5.19,6.12 -0.405,-4.59 -1.59,-10.14 2.032,-13.8 1.193,-1.373 2.993,-0.63 4.373,-0.052 2.13,0.165 4.703,0.12 6.075,2.084 1.927,2.768 0.465,6.308 -1.065,8.911 -2.31,4.05 -6.307,7.395 -6.945,12.225 -0.472,2.4 2.153,3.555 4.103,3.713 2.272,0.412 3.653,-1.86 5.4,-2.88 2.37,-2.07 5.715,-2.73 7.807,-5.138 -3.188,-0.06 -6.735,0.398 -9.262,-1.995 2.43,-1.133 4.927,-2.333 6.54,-4.583 -1.912,0.315 -3.847,0.562 -5.79,0.405 1.32,-1.725 3.18,-3.15 3.847,-5.295 -0.022,-2.228 -0.802,-4.417 -0.435,-6.66 0.536,-1.321 -0.769,-2.079 -1.421,-2.986 z m 8.437,1.507 c 0.945,0.758 1.83,1.598 2.708,2.43 0.577,-0.87 1.162,-1.725 1.77,-2.572 -1.493,0.075 -2.985,0.142 -4.478,0.142 z"
   id="path112"
   inkscape:connector-curvature="0"
   style="fill:#014189;stroke:#014189;stroke-width:0.0938;stroke-miterlimit:10.43000031" />
	</g>
	<path
   stroke-miterlimit="10.43"
   d="m 111.335,188.748 c 2.355,-0.72 3.157,2.603 1.778,4.005 -1.898,2.108 -5.033,1.598 -7.56,1.733 1.89,-0.51 3.818,-0.983 5.55,-1.928 -0.098,-1.23 -1.621,-3.277 0.232,-3.81 z"
   id="path116"
   inkscape:connector-curvature="0"
   style="fill:#014189;stroke:#014189;stroke-width:0.0938;stroke-miterlimit:10.43000031" />
	<g
   id="g120">
		<path
   stroke-miterlimit="10.43"
   d="m 324.38,187.503 c 1.087,1.252 1.86,3.008 3.585,3.525 3.36,1.312 6.81,2.392 10.215,3.6 1.89,0.713 4.132,1.05 5.362,2.858 -4.958,2.625 -10.11,4.867 -15.053,7.507 -1.53,0.668 -1.672,2.505 -2.325,3.833 -1.229,-3.143 -0.84,-6.623 -1.095,-9.922 0.495,0.495 1.478,1.5 1.965,1.995 1.253,-0.39 2.445,-0.945 3.66,-1.47 -0.105,-1.86 -0.218,-3.712 -0.337,-5.565 -1.32,-0.308 -2.64,-0.6 -3.967,-0.862 -0.428,0.93 -0.825,1.897 -1.455,2.723 -0.465,-2.717 -0.6,-5.477 -0.555,-8.222 z m 7.83,11.16 c 1.853,-0.863 3.697,-1.725 5.528,-2.618 -1.928,-0.66 -3.878,-1.252 -5.82,-1.845 0.089,1.486 0.195,2.97 0.292,4.463 z"
   id="path118"
   inkscape:connector-curvature="0"
   style="fill:#014189;stroke:#014189;stroke-width:0.0938;stroke-miterlimit:10.43000031" />
	</g>
	<path
   stroke-miterlimit="10.43"
   d="m 200.48,191.471 c 1.133,-0.758 2.302,-1.463 3.495,-2.123 2.273,2.857 3.263,7.163 1.657,10.522 -1.462,-2.954 -3.037,-5.857 -5.152,-8.399 z"
   id="path122"
   inkscape:connector-curvature="0"
   style="fill:#014189;stroke:#014189;stroke-width:0.0938;stroke-miterlimit:10.43000031" />
	<path
   stroke-miterlimit="10.43"
   d="m 210.26,192.258 c 0.307,-1.38 1.717,-2.729 3.195,-2.092 0.6,1.425 0.473,3.03 -0.592,4.192 -1.358,1.598 -1.635,4.087 -3.615,5.085 0.172,-2.415 0.404,-4.837 1.012,-7.185 z"
   id="path124"
   inkscape:connector-curvature="0"
   style="fill:#014189;stroke:#014189;stroke-width:0.0938;stroke-miterlimit:10.43000031" />
	<path
   stroke-miterlimit="10.43"
   d="m 236.652,195.423 c 0.383,-0.008 1.148,-0.015 1.538,-0.015 -0.007,1.08 -0.007,2.16 -0.007,3.24 -0.383,0 -1.148,-0.007 -1.53,-0.015 -0.001,-1.072 -0.008,-2.145 -0.001,-3.21 z"
   id="path126"
   inkscape:connector-curvature="0"
   style="fill:#014189;stroke:#014189;stroke-width:0.0938;stroke-miterlimit:10.43000031" />
	<path
   stroke-miterlimit="10.43"
   d="m 223.415,204.116 c 0.113,2.415 0.135,4.837 0.068,7.26 -1.096,-2.363 -1.516,-4.92 -0.068,-7.26 z"
   id="path128"
   inkscape:connector-curvature="0"
   style="fill:#014189;stroke:#014189;stroke-width:0.0938;stroke-miterlimit:10.43000031" />
	<path
   stroke-miterlimit="10.43"
   d="m 201.59,209.291 c 2.25,-0.975 4.552,-1.8 6.833,-2.708 -0.465,0.638 -0.938,1.268 -1.41,1.898 -0.225,1.087 -0.473,2.167 -0.75,3.24 -0.495,-0.788 -0.983,-1.583 -1.455,-2.385 -1.073,0.142 -2.176,0.33 -3.218,-0.045 z"
   id="path130"
   inkscape:connector-curvature="0"
   style="fill:#014189;stroke:#014189;stroke-width:0.0938;stroke-miterlimit:10.43000031" />
	<path
   stroke-miterlimit="10.43"
   d="m 176.06,206.636 c 1.53,0.143 3.06,0.292 4.597,0.442 -0.007,12.255 -0.225,24.57 1.328,36.75 1.312,10.792 5.482,21.427 12.75,29.61 2.213,2.603 5.01,4.575 7.478,6.908 0.397,0.998 -0.833,1.17 -1.455,1.545 -4.17,1.658 -8.707,1.882 -13.11,2.467 -3.18,2.865 -7.073,4.808 -11.062,6.285 -2.475,0.915 -5.167,0.442 -7.613,-0.323 3.518,-0.18 9.105,-0.682 9.615,-5.084 -1.635,-1.575 -4.042,-1.238 -6.105,-1.478 -2.722,-0.075 -5.055,-1.665 -7.5,-2.655 -20.385,5.422 -40.785,10.77 -61.155,16.245 -0.465,1.357 -0.945,2.707 -1.417,4.072 -9.045,0.833 -18.075,1.83 -27.128,2.528 8.138,-3.398 16.275,-6.788 24.413,-10.185 1.223,0.72 2.445,1.44 3.66,2.167 20.01,-5.137 39.968,-10.417 60,-15.449 -1.29,-0.706 -2.573,-1.418 -3.818,-2.183 2.917,-0.585 5.715,0.375 8.348,1.53 3.435,0.3 6.885,0.555 10.335,0.825 1.56,-14.67 0.953,-29.475 0.668,-44.198 -0.367,-4.14 0.127,-8.498 -1.32,-12.458 -1.028,7.38 0.292,14.865 -0.615,22.252 -0.135,1.155 -0.577,2.25 -1.042,3.315 -0.72,-2.55 -0.907,-5.212 -0.81,-7.845 0.328,-11.698 0.636,-23.391 0.958,-35.083 z"
   id="path132"
   inkscape:connector-curvature="0"
   style="fill:#014189;stroke:#014189;stroke-width:0.0938;stroke-miterlimit:10.43000031" />
	<path
   stroke-miterlimit="10.43"
   d="m 235.317,211.563 c 0.368,-0.038 1.087,-0.127 1.448,-0.172 -0.008,1.132 0.098,2.257 0.09,3.397 -0.397,-0.038 -1.208,-0.12 -1.613,-0.165 0.023,-1.02 0.053,-2.04 0.075,-3.06 z"
   id="path134"
   inkscape:connector-curvature="0"
   style="fill:#014189;stroke:#014189;stroke-width:0.0938;stroke-miterlimit:10.43000031" />
	<path
   stroke-miterlimit="10.43"
   d="m 31.047,212.231 c 2.79,-1.748 6.9,0.6 6.607,3.93 -0.037,3.405 -4.5,5.4 -7.102,3.225 -2.482,-1.696 -2.16,-5.805 0.495,-7.155 z"
   id="path136"
   inkscape:connector-curvature="0"
   style="fill:#014189;stroke:#014189;stroke-width:0.0938;stroke-miterlimit:10.43000031" />
	<path
   stroke-miterlimit="10.43"
   d="m 333.32,212.238 c 2.97,-1.492 6.84,1.343 6.165,4.635 -0.435,3.322 -5.018,4.807 -7.357,2.46 -2.333,-1.905 -1.583,-6.015 1.192,-7.095 z"
   id="path138"
   inkscape:connector-curvature="0"
   style="fill:#014189;stroke:#014189;stroke-width:0.0938;stroke-miterlimit:10.43000031" />
	<path
   stroke-miterlimit="10.43"
   d="m 206.817,213.438 c 1.2,-0.172 2.4,-0.315 3.615,-0.435 0.247,0.225 0.742,0.683 0.99,0.916 -1.567,0.284 -3.157,0.239 -4.605,-0.481 z"
   id="path140"
   inkscape:connector-curvature="0"
   style="fill:#014189;stroke:#014189;stroke-width:0.0938;stroke-miterlimit:10.43000031" />
	<path
   stroke-miterlimit="10.43"
   d="m 246.507,215.628 c 0.375,-0.037 1.133,-0.097 1.508,-0.135 0.008,1.118 0.015,2.228 0.022,3.353 -0.383,-0.022 -1.133,-0.06 -1.515,-0.083 -0.007,-1.05 -0.007,-2.093 -0.015,-3.135 z"
   id="path142"
   inkscape:connector-curvature="0"
   style="fill:#014189;stroke:#014189;stroke-width:0.0938;stroke-miterlimit:10.43000031" />
	<path
   stroke-miterlimit="10.43"
   d="m 206.217,223.016 c 0.533,-2.333 -0.21,-5.835 2.363,-7.095 3.525,0.285 1.44,4.725 1.522,6.975 -1.297,0.029 -2.587,0.067 -3.885,0.12 z"
   id="path144"
   inkscape:connector-curvature="0"
   style="fill:#014189;stroke:#014189;stroke-width:0.0938;stroke-miterlimit:10.43000031" />
	<path
   stroke-miterlimit="10.43"
   d="m 42.395,225.371 c 1.522,3.353 1.372,7.192 1.77,10.792 -0.772,-0.968 -1.425,-2.033 -2.205,-2.985 -4.147,0.188 -8.265,0.967 -12.337,1.755 5.1,1.92 10.582,2.775 15.525,5.115 -4.282,2.887 -8.782,5.415 -13.147,8.167 3.93,-0.547 8.055,-0.271 11.827,-1.598 0.337,-1.035 0.645,-2.084 0.915,-3.142 1.477,2.498 1.125,5.58 1.522,8.348 -1.14,-0.84 -1.8,-2.753 -3.472,-2.528 -4.215,0.12 -8.513,0.03 -12.645,0.938 -0.292,0.878 -0.502,1.785 -0.615,2.715 -0.217,0.038 -0.652,0.105 -0.87,0.143 -0.3,-2.213 -0.593,-4.425 -0.877,-6.63 3.585,-2.377 7.275,-4.612 10.77,-7.125 -4.057,-1.275 -8.145,-2.438 -12.218,-3.667 -0.353,-2.603 -0.795,-5.206 -0.78,-7.845 0.765,1.005 1.425,2.077 2.205,3.067 4.282,-0.337 8.542,-1.133 12.758,-1.935 1.806,-0.09 1.221,-2.46 1.874,-3.585 z"
   id="path146"
   inkscape:connector-curvature="0"
   style="fill:#014189;stroke:#014189;stroke-width:0.0938;stroke-miterlimit:10.43000031" />
	<path
   stroke-miterlimit="10.43"
   d="m 324.755,228.213 c 0.015,-1.012 0.345,-1.927 0.975,-2.708 0.255,1.043 0.547,2.085 0.87,3.12 4.268,1.103 8.752,1.29 13.14,1.62 1.402,0.247 1.478,-1.688 2.138,-2.513 0.202,0.098 0.607,0.292 0.81,0.397 -0.562,3.36 -0.27,6.93 -1.545,10.14 -0.682,-1.222 -0.345,-3.547 -2.197,-3.66 -4.192,-0.518 -8.422,-1.275 -12.652,-1.073 -1.155,1.41 -1.08,3.413 -0.87,5.13 0.833,1.56 2.963,2.017 3.48,3.832 -1.868,-0.457 -3.698,-1.058 -5.512,-1.688 0.523,-4.189 0.913,-8.397 1.363,-12.597 z"
   id="path148"
   inkscape:connector-curvature="0"
   style="fill:#014189;stroke:#014189;stroke-width:0.0938;stroke-miterlimit:10.43000031" />
	<path
   stroke-miterlimit="10.43"
   d="m 284.863,237.813 c 0.915,-0.09 1.823,0.03 2.737,0.105 -0.915,1.267 -2.468,1.582 -3.84,2.1 2.917,2.393 7.702,-1.583 9.81,2.295 -1.718,1.703 -4.005,2.423 -6.367,2.617 0.473,1.013 1.02,2.033 1.913,2.76 -1.725,1.433 -2.978,3.562 -5.258,4.2 0.922,-1.065 1.89,-2.092 2.775,-3.188 -0.817,-0.825 -1.635,-1.65 -2.438,-2.482 -2.407,2.137 -2.452,6.862 -6.367,6.998 1.89,-1.643 3.345,-3.675 4.387,-5.948 -2.542,0.81 -5.467,1.11 -7.425,3.12 -1.537,1.433 -3.18,3.638 -5.527,2.475 2.595,-0.878 4.68,-2.723 5.76,-5.25 -1.522,-1.86 -3.667,-3.203 -4.71,-5.438 1.672,1.222 3.315,3.36 5.67,2.558 1.86,-0.345 1.26,-2.88 1.748,-4.2 0.345,0.413 1.027,1.252 1.372,1.672 0.578,-0.06 1.74,-0.172 2.318,-0.225 -0.825,1.298 -1.643,2.61 -2.288,4.02 1.763,-0.517 3.36,-1.478 5.13,-1.958 2.677,-0.39 5.917,0.63 8.025,-1.597 l -0.18,-1.065 c -3.015,-0.667 -6.427,1.223 -9,-1.132 0.554,-0.832 1.049,-1.717 1.755,-2.437 z"
   id="path150"
   inkscape:connector-curvature="0"
   style="fill:#014189;stroke:#014189;stroke-width:0.0938;stroke-miterlimit:10.43000031" />
	<path
   stroke-miterlimit="10.43"
   d="m 320.15,258.536 c 0.57,-3.533 0.952,-7.185 2.438,-10.478 0.638,1.237 0.188,3.555 2.062,3.705 4.005,0.968 8.04,1.935 12.127,2.475 0.922,-0.742 1.703,-1.635 2.603,-2.4 -0.562,3.42 -0.817,7.065 -2.512,10.163 -0.473,-1.17 -0.023,-3.292 -1.74,-3.54 -3.667,-0.998 -7.41,-1.732 -11.152,-2.4 -1.876,-0.653 -2.634,1.522 -3.826,2.475 z"
   id="path152"
   inkscape:connector-curvature="0"
   style="fill:#014189;stroke:#014189;stroke-width:0.0938;stroke-miterlimit:10.43000031" />
	<path
   stroke-miterlimit="10.43"
   d="m 33.073,262.593 c 4.342,0.09 8.355,-2.76 12.75,-1.935 3.397,0.66 5.152,4.23 5.565,7.373 0.39,2.28 -0.27,4.935 -2.377,6.165 -3.427,2.07 -7.605,2.25 -11.19,3.945 -0.81,0.953 -0.735,2.385 -1.185,3.54 -1.283,-3.337 -2.265,-6.802 -2.948,-10.312 1.185,0.788 1.995,2.812 3.683,2.235 3.502,-0.9 7.282,-1.567 10.245,-3.75 2.88,-2.288 1.027,-7.553 -2.655,-7.553 -3.795,0.075 -7.583,1.253 -10.972,2.903 -0.443,1.215 -0.668,2.498 -1.043,3.735 -1.065,-2.737 -1.867,-5.565 -2.438,-8.445 0.862,0.689 1.664,1.462 2.565,2.099 z"
   id="path154"
   inkscape:connector-curvature="0"
   style="fill:#014189;stroke:#014189;stroke-width:0.0938;stroke-miterlimit:10.43000031" />
	<g
   id="g158">
		<path
   stroke-miterlimit="10.43"
   d="m 315.748,273.213 c 0.877,-2.445 1.417,-5.077 2.925,-7.237 0.465,1.163 -0.39,3.232 1.133,3.765 3.6,1.515 7.357,2.663 11.085,3.825 1.695,0.848 2.692,-1.192 3.922,-1.935 -0.893,3.735 -2.167,7.365 -3.54,10.95 -0.757,2.055 -2.64,4.335 -5.1,3.562 -2.175,-0.42 -2.595,-2.843 -2.88,-4.665 -0.938,1.02 -1.748,2.28 -3.067,2.827 -2.25,0.878 -5.07,-0.577 -5.655,-2.917 -0.714,-2.767 0.359,-5.55 1.177,-8.175 z m 3.044,6.795 c 2.992,1.2 4.68,-2.04 5.595,-4.29 -2.1,-0.72 -4.177,-1.635 -6.412,-1.815 -2.812,1.035 -2.003,5.595 0.817,6.105 z m 6.63,-3.967 c -0.225,1.035 -0.473,2.062 -0.57,3.12 -0.097,2.183 2.783,3.623 4.545,2.438 1.14,-0.78 1.417,-2.257 2.04,-3.405 -1.972,-0.803 -3.997,-1.486 -6.015,-2.153 z"
   id="path156"
   inkscape:connector-curvature="0"
   style="fill:#014189;stroke:#014189;stroke-width:0.0938;stroke-miterlimit:10.43000031" />
	</g>
	<g
   id="g180">
		<g
   id="g162">
			<path
   stroke-miterlimit="10.43"
   d="m 563.405,198.849 c 6.868,-1.16 13.725,-2.509 20.549,-4.003 0.112,24.519 -0.211,49.059 0.156,73.578 -0.613,4.951 5.163,3.813 8.296,4.025 -0.022,0.802 -0.056,2.408 -0.079,3.21 -6.924,1.149 -13.814,2.565 -20.515,4.661 -0.011,-2.263 -0.022,-4.538 -0.011,-6.79 -5.331,2.542 -10.391,7.57 -16.736,6.277 -8.106,-1.227 -15.42,-6.857 -18.542,-14.44 -3.902,-9.455 -2.141,-21.017 4.684,-28.699 7.392,-8.652 19.567,-11.985 30.583,-10.146 -0.2,-7.281 0.435,-14.595 -0.368,-21.832 -1.081,-3.223 -5.43,-2.208 -8.039,-2.876 -0.011,-0.992 -0.001,-1.984 0.022,-2.965 z m -8.519,34.709 c -5.753,4.895 -6.589,13.146 -6.322,20.226 0.258,7.192 3.669,15.22 10.86,17.884 4.204,1.651 8.664,-0.067 12.399,-2.073 -0.145,-10.961 0.201,-21.932 -0.145,-32.88 -2.542,-6.257 -11.919,-7.372 -16.792,-3.157 z"
   id="path160"
   inkscape:connector-curvature="0"
   style="fill:#014189;stroke:#014189;stroke-width:0.0938;stroke-miterlimit:10.43000031" />
		</g>
		<path
   stroke-miterlimit="10.43"
   d="m 513.153,198.682 c 4.739,-2.074 10.537,1.951 10.38,7.08 0.369,6.02 -7.782,10.001 -12.264,5.909 -4.706,-3.155 -3.335,-11.15 1.884,-12.989 z"
   id="path164"
   inkscape:connector-curvature="0"
   style="fill:#014189;stroke:#014189;stroke-width:0.0938;stroke-miterlimit:10.43000031" />
		<path
   stroke-miterlimit="10.43"
   d="m 391.453,207.991 c 11.584,-0.034 23.169,-0.055 34.754,0.012 0,0.78 -0.011,2.341 -0.011,3.121 -3.312,0.635 -7.593,0.346 -9.7,3.501 -1.818,3.423 -1.561,7.459 -1.684,11.217 0.045,12.676 -0.123,25.354 0.088,38.031 0.056,2.978 0.503,7.181 4.137,7.805 4.772,0.803 10.068,1.07 14.506,-1.193 5.318,-3.266 8.374,-8.93 12.008,-13.802 0.903,0.234 2.732,0.701 3.646,0.937 -2.341,6.99 -4.683,13.97 -6.779,21.039 -17.148,0 -34.285,0.011 -51.434,0 0.011,-0.792 0.011,-2.386 0.011,-3.189 3.189,-0.635 7.415,-0.189 9.445,-3.29 1.572,-3.277 1.17,-7.057 1.382,-10.592 0,-13.157 0.112,-26.324 -0.067,-39.481 -0.245,-2.854 0.056,-6.122 -1.851,-8.474 -2.241,-2.163 -5.631,-1.951 -8.463,-2.52 0.001,-0.78 0.012,-2.341 0.012,-3.122 z"
   id="path166"
   inkscape:connector-curvature="0"
   style="fill:#014189;stroke:#014189;stroke-width:0.0938;stroke-miterlimit:10.43000031" />
		<g
   id="g170">
			<path
   stroke-miterlimit="10.43"
   d="m 462.042,232.142 c 5.486,-4.895 13.425,-7.259 20.627,-5.353 7.382,1.974 13.135,9.166 12.923,16.903 -0.079,1.46 0.122,4.015 -1.929,4.159 -10.09,1.326 -20.292,1.394 -30.427,2.129 0.1,7.292 2.687,15.442 9.655,18.91 6.734,3.791 15.063,1.863 20.828,-2.832 0.424,0.502 1.282,1.506 1.717,2.007 -4.338,5.664 -10.191,10.86 -17.505,11.896 -8.842,0.848 -18.264,-3.377 -22.679,-11.25 -6.746,-11.761 -3.423,-27.861 6.79,-36.569 z m 8.642,-0.144 c -4.404,2.865 -5.92,8.228 -6.879,13.078 6.534,-0.134 13.101,0.145 19.623,-0.524 0.592,-4.181 -0.368,-8.741 -3.59,-11.674 -2.364,-2.453 -6.389,-2.832 -9.154,-0.88 z"
   id="path168"
   inkscape:connector-curvature="0"
   style="fill:#014189;stroke:#014189;stroke-width:0.0938;stroke-miterlimit:10.43000031" />
		</g>
		<path
   stroke-miterlimit="10.43"
   d="m 502.571,230.357 c 6.668,-1.159 13.269,-2.675 19.802,-4.481 0.023,14.104 -0.056,28.208 0.023,42.313 0.2,2.029 -0.167,4.906 2.073,5.987 1.874,0.78 3.947,0.903 5.955,1.283 0.033,0.803 0.11,2.419 0.144,3.222 -9.566,-0.022 -19.144,0.045 -28.699,-0.033 -0.736,-4.783 4.783,-2.944 7.214,-5.096 1.26,-1.873 0.914,-4.281 1.093,-6.411 -0.011,-8.919 0.022,-17.851 -0.022,-26.77 -0.223,-2.029 0.245,-4.527 -1.394,-6.066 -1.918,-0.858 -4.048,-0.936 -6.055,-1.282 -0.033,-0.669 -0.1,-1.996 -0.134,-2.666 z"
   id="path172"
   inkscape:connector-curvature="0"
   style="fill:#014189;stroke:#014189;stroke-width:0.0938;stroke-miterlimit:10.43000031" />
		<g
   id="g176">
			<path
   stroke-miterlimit="10.43"
   d="m 606.488,232.833 c 6.244,-6.077 16.312,-8.787 24.396,-4.907 7.002,3.312 11.797,11.942 9.21,19.513 -10.347,2.073 -21.095,1.616 -31.609,2.52 0.29,4.638 0.825,9.533 3.579,13.458 3.892,6.054 11.93,8.853 18.81,6.89 3.065,-0.825 5.563,-2.888 8.44,-4.158 0.279,0.468 0.858,1.394 1.148,1.862 -3.813,5.72 -9.667,10.414 -16.479,11.818 -8.864,1.249 -18.52,-2.788 -23.169,-10.581 -7.015,-11.461 -4.116,-27.451 5.674,-36.415 z m 9.288,-0.747 c -4.326,2.866 -5.821,8.184 -6.746,12.99 6.545,-0.111 13.112,0.101 19.646,-0.491 0.524,-4.225 -0.401,-8.853 -3.702,-11.774 -2.397,-2.442 -6.467,-2.743 -9.198,-0.725 z"
   id="path174"
   inkscape:connector-curvature="0"
   style="fill:#014189;stroke:#014189;stroke-width:0.0938;stroke-miterlimit:10.43000031" />
		</g>
		<path
   stroke-miterlimit="10.43"
   d="m 647.831,230.38 c 6.656,-1.205 13.257,-2.698 19.78,-4.504 -0.011,2.765 -0.011,5.53 0.011,8.295 3.523,-2.219 6.924,-4.672 10.67,-6.512 6.221,-3.133 14.796,-1.55 18.888,4.292 2.274,3.055 2.832,6.958 2.888,10.67 0.078,8.184 -0.056,16.368 -0.011,24.563 0.055,2.196 0,4.526 0.959,6.578 2.062,1.126 4.437,1.383 6.7,1.952 v 2.965 c -9.22,-0.056 -18.452,0.123 -27.663,-0.111 0.38,-3.858 4.549,-3.423 7.069,-5.073 1.628,-7.549 0.401,-15.376 0.814,-23.047 -0.111,-5.14 0.747,-11.863 -4.248,-15.097 -5.341,-3.245 -11.462,-0.022 -16,3.066 -0.157,9.21 -0.034,18.409 -0.101,27.618 0.101,2.531 -0.167,5.241 0.969,7.593 1.651,1.17 3.747,1.416 5.665,2.051 -0.011,0.748 -0.022,2.242 -0.022,2.988 -9.065,0.011 -18.118,0.011 -27.161,0.011 -0.034,-1.036 -0.056,-2.074 -0.044,-3.099 3.156,-0.703 8.507,-0.513 8.228,-5.085 0.29,-11.162 0.402,-22.377 -0.066,-33.539 0.033,-3.835 -4.705,-3.245 -7.292,-4.125 -0.01,-0.61 -0.022,-1.837 -0.033,-2.45 z"
   id="path178"
   inkscape:connector-curvature="0"
   style="fill:#014189;stroke:#014189;stroke-width:0.0938;stroke-miterlimit:10.43000031" />
	</g>
	<g
   id="g216">
		<path
   stroke-miterlimit="10.43"
   d="m 538.233,85.364 c 4.556,-1.643 9.817,2.25 9.666,7.078 0.327,5.664 -7.176,9.589 -11.602,5.991 -5.132,-2.991 -3.653,-11.548 1.936,-13.069 z"
   id="path182"
   inkscape:connector-curvature="0"
   style="fill:#014189;stroke:#014189;stroke-width:0.0938;stroke-miterlimit:10.43000031" />
		<path
   stroke-miterlimit="10.43"
   d="m 755.748,85.439 c 4.6,-1.838 10.058,2.099 9.895,7.023 0.294,5.806 -7.48,9.656 -11.873,5.795 -4.785,-3.076 -3.328,-11.165 1.978,-12.818 z"
   id="path184"
   inkscape:connector-curvature="0"
   style="fill:#014189;stroke:#014189;stroke-width:0.0938;stroke-miterlimit:10.43000031" />
		<path
   stroke-miterlimit="10.43"
   d="m 874.438,85.635 c 4.653,-2.284 10.568,1.673 10.416,6.795 0.316,5.655 -7.154,9.601 -11.6,6.024 -4.862,-2.838 -3.883,-10.775 1.184,-12.819 z"
   id="path186"
   inkscape:connector-curvature="0"
   style="fill:#014189;stroke:#014189;stroke-width:0.0938;stroke-miterlimit:10.43000031" />
		<path
   stroke-miterlimit="10.43"
   d="m 384.565,94.627 c 10.807,-0.011 21.615,-0.011 32.423,0 0,0.761 0.011,2.294 0.011,3.055 -2.109,0.37 -4.295,0.5 -6.295,1.294 -2.044,0.891 -2.609,3.316 -2.815,5.316 -0.555,6.926 -0.262,13.896 -0.337,20.833 0.042,7.503 -0.131,15.245 2.5,22.387 1.708,4.655 5.458,8.818 10.482,9.797 6.208,1.229 13.613,0.685 18.19,-4.197 4.534,-4.991 5.752,-11.993 6.349,-18.484 0.512,-9.002 0.285,-18.038 -0.238,-27.03 -0.414,-2.588 -0.249,-5.784 -2.523,-7.535 -2.707,-1.773 -6.078,-1.849 -9.166,-2.36 0.011,-0.773 0.011,-2.327 0.011,-3.099 10.025,0 20.049,0 30.074,0 0,0.75 0.011,2.272 0.011,3.022 -3.219,0.642 -7.862,0.87 -8.926,4.708 -3.251,14.951 1.087,30.934 -4.403,45.504 -3.328,9.188 -12.048,15.832 -21.681,17.071 -8.448,0.999 -17.755,-0.186 -24.648,-5.546 -6.101,-4.784 -8.068,-12.852 -8.602,-20.223 -0.695,-11.189 0.131,-22.411 -0.521,-33.598 -0.185,-2.24 -0.435,-4.969 -2.588,-6.241 -2.261,-1.109 -4.871,-1.109 -7.296,-1.533 -0.002,-0.781 -0.002,-2.358 -0.012,-3.141 z"
   id="path188"
   inkscape:connector-curvature="0"
   style="fill:#014189;stroke:#014189;stroke-width:0.0938;stroke-miterlimit:10.43000031" />
		<path
   stroke-miterlimit="10.43"
   d="m 783.833,106.554 c 3.349,-2.881 6.427,-6.1 9.993,-8.742 0.326,0.12 0.979,0.358 1.306,0.467 0.576,5.285 0.109,10.624 0.249,15.94 4.665,0.151 9.394,-0.458 14.016,0.37 0.369,1.631 -0.153,3.261 -0.533,4.849 -4.491,0.055 -8.991,0.033 -13.472,0.044 0.011,9.09 -0.032,18.18 0,27.269 0.088,3.501 0.327,7.698 3.404,9.993 3.164,2.076 7.023,0.174 10.231,-0.827 0.316,0.706 0.936,2.099 1.25,2.794 -6.088,2.436 -12.015,7.959 -18.984,5.448 -5.262,-1.229 -7.513,-6.958 -7.437,-11.863 -0.174,-10.959 -0.011,-21.93 -0.065,-32.89 -2.849,-0.315 -6.198,0.815 -8.655,-0.914 1.099,-1.641 2.479,-3.066 3.871,-4.458 1.598,0.034 3.197,0.066 4.816,0.109 -10e-4,-2.533 -10e-4,-5.066 0.01,-7.589 z"
   id="path190"
   inkscape:connector-curvature="0"
   style="fill:#014189;stroke:#014189;stroke-width:0.0938;stroke-miterlimit:10.43000031" />
		<path
   stroke-miterlimit="10.43"
   d="m 903.001,106.566 c 3.741,-3.079 6.872,-7.014 11.308,-9.134 0.445,5.578 0.196,11.178 0.25,16.777 4.665,0 9.33,0 14.005,-0.011 -0.011,1.674 0.424,3.512 -0.642,4.979 -4.403,0.664 -8.883,0.185 -13.309,0.261 -0.087,9.145 -0.054,18.289 -0.043,27.443 0.076,3.556 0.423,7.829 3.642,10.036 3.187,1.772 6.829,0.011 9.971,-1.022 0.413,0.925 0.859,1.838 1.305,2.773 -6.013,2.445 -11.862,7.883 -18.766,5.556 -4.97,-1.022 -7.579,-6.187 -7.601,-10.895 -0.315,-11.297 -0.043,-22.615 -0.12,-33.923 -2.674,-0.022 -5.349,0.12 -7.991,-0.186 -1.175,-2.196 2.055,-3.479 3.065,-5.121 1.631,0 3.273,0 4.936,0.01 -0.01,-2.521 -0.021,-5.032 -0.01,-7.543 z"
   id="path192"
   inkscape:connector-curvature="0"
   style="fill:#014189;stroke:#014189;stroke-width:0.0938;stroke-miterlimit:10.43000031" />
		<path
   stroke-miterlimit="10.43"
   d="m 463.47,116.503 c 6.579,-1.229 13.135,-2.652 19.583,-4.468 0,2.696 0,5.392 0.01,8.101 4.023,-2.436 7.786,-5.393 12.2,-7.112 6.187,-2.131 14.037,0.066 17.331,5.98 2.816,4.763 2.044,10.514 2.153,15.81 0.131,7.285 -0.326,14.603 0.262,21.875 0.108,3.404 4.25,3.078 6.61,3.774 0.01,0.762 0.021,2.294 0.021,3.065 -8.589,0 -17.179,-0.01 -25.78,0 -0.01,-1.022 -0.032,-2.044 -0.043,-3.055 2.033,-0.576 4.458,-0.435 6.122,-1.892 1.088,-1.893 0.794,-4.175 0.946,-6.264 -0.033,-7.273 0.055,-14.558 -0.033,-21.832 -0.043,-3.306 -0.891,-7.024 -3.783,-8.993 -3.872,-2.62 -9.037,-1.533 -12.766,0.816 -1.337,0.989 -3.588,1.696 -3.186,3.794 0.044,10.188 -0.37,20.409 0.239,30.585 0.012,4.47 7.536,1.74 6.449,6.795 -8.938,0.088 -17.876,0.023 -26.803,0.044 0,-0.782 0,-2.337 0,-3.109 2.393,-0.554 5.219,-0.293 7.188,-1.979 1.435,-2.893 0.848,-6.296 1.021,-9.416 -0.206,-8.905 0.359,-17.853 -0.315,-26.737 -0.413,-4.335 -7.644,-1.084 -7.426,-5.782 z"
   id="path194"
   inkscape:connector-curvature="0"
   style="fill:#014189;stroke:#014189;stroke-width:0.0938;stroke-miterlimit:10.43000031" />
		<path
   stroke-miterlimit="10.43"
   d="m 527.403,116.503 c 6.492,-1.294 12.96,-2.663 19.322,-4.468 0.033,13.406 -0.034,26.812 0.022,40.219 0.206,2.087 -0.176,4.524 1.217,6.295 1.902,1.479 4.501,1.349 6.774,1.893 -0.022,1.021 -0.034,2.055 -0.034,3.087 -9.22,0 -18.44,0.011 -27.66,0 0,-0.782 0,-2.326 0.011,-3.109 2.315,-0.576 5.164,-0.326 6.98,-2.153 1.185,-2.914 0.708,-6.187 0.848,-9.264 -0.174,-8.73 0.283,-17.494 -0.239,-26.214 -0.054,-3.696 -4.544,-3.197 -7.078,-3.849 -0.032,-0.61 -0.119,-1.828 -0.163,-2.437 z"
   id="path196"
   inkscape:connector-curvature="0"
   style="fill:#014189;stroke:#014189;stroke-width:0.0938;stroke-miterlimit:10.43000031" />
		<g
   id="g200">
			<path
   stroke-miterlimit="10.43"
   d="m 621.771,116.536 c 5.274,-3.707 12.21,-5.328 18.484,-3.512 7.046,2.066 12.45,8.993 12.254,16.418 -0.142,1.37 0.195,3.751 -1.708,3.98 -9.873,1.349 -19.866,1.413 -29.792,2.098 0,7.23 2.665,15.319 9.656,18.615 6.566,3.555 14.505,1.511 20.082,-2.937 0.392,0.512 1.153,1.545 1.534,2.055 -4.154,5.382 -9.656,10.34 -16.604,11.46 -8.97,1.087 -18.614,-3.371 -22.854,-11.503 -6.622,-12.209 -2.317,-28.747 8.948,-36.674 z m 8.231,0.61 c -5.545,2.076 -7.514,8.328 -8.514,13.613 6.165,-0.196 12.373,0.228 18.527,-0.447 2.98,-5.816 -3.033,-15.45 -10.013,-13.166 z"
   id="path198"
   inkscape:connector-curvature="0"
   style="fill:#014189;stroke:#014189;stroke-width:0.0938;stroke-miterlimit:10.43000031" />
		</g>
		<path
   stroke-miterlimit="10.43"
   d="m 659.435,116.361 c 6.295,-1.108 12.503,-2.599 18.658,-4.348 -0.142,4.272 -0.283,8.535 -0.402,12.808 3.772,-4.925 7.589,-11.981 14.635,-12.112 5.947,-0.119 7.851,8.209 3.447,11.537 -3.719,3.479 -7.122,-3.219 -11.178,-1.555 -3.882,1.544 -7.046,5.643 -6.524,9.97 0.25,7.623 -0.457,15.299 0.413,22.876 1.077,4.415 6.48,4.166 10.025,4.829 -0.022,1.044 -0.032,2.098 -0.032,3.154 -9.797,-0.022 -19.594,0.032 -29.38,-0.044 -0.739,-4.546 4.437,-2.946 6.709,-5.024 1.164,-1.837 0.892,-4.142 1.044,-6.197 0.011,-8.709 0.022,-17.407 0,-26.106 -0.184,-1.957 0.174,-4.284 -1.283,-5.838 -1.849,-0.924 -3.968,-0.967 -5.948,-1.359 -0.043,-0.655 -0.141,-1.949 -0.184,-2.591 z"
   id="path202"
   inkscape:connector-curvature="0"
   style="fill:#014189;stroke:#014189;stroke-width:0.0938;stroke-miterlimit:10.43000031" />
		<path
   stroke-miterlimit="10.43"
   d="m 713.909,113.774 c 6.002,-2.349 12.721,-1.696 18.702,0.413 1.163,3.958 2.011,7.992 2.718,12.069 -0.771,0.065 -2.316,0.196 -3.099,0.272 -2.75,-4.274 -5.817,-9.798 -11.623,-9.884 -5.057,-0.608 -9.102,5.969 -5.893,10.069 4.468,5.926 12.959,6.055 18.08,11.242 6.579,5.404 6.177,16.548 -0.282,21.876 -8.057,6.807 -20.452,6.545 -29.053,0.848 -1.055,-4.534 -1.608,-9.155 -1.729,-13.808 0.75,0 2.24,0 2.979,0 2.044,5.926 6.078,12.124 12.602,13.537 4.795,1.108 10.221,-2.926 9.274,-8.079 -0.696,-5.677 -6.633,-7.949 -11.134,-10.048 -5.426,-2.326 -11.08,-6.523 -11.688,-12.852 -0.836,-6.804 3.796,-13.426 10.146,-15.655 z"
   id="path204"
   inkscape:connector-curvature="0"
   style="fill:#014189;stroke:#014189;stroke-width:0.0938;stroke-miterlimit:10.43000031" />
		<path
   stroke-miterlimit="10.43"
   d="m 749.779,115.503 c 4.969,-0.837 9.84,-2.185 14.711,-3.479 0.022,13.427 -0.011,26.856 0.011,40.272 0.142,2.044 -0.142,4.361 1.087,6.154 1.881,1.599 4.566,1.415 6.872,1.979 0,0.772 0,2.316 0,3.088 -9.21,0.032 -18.409,-0.022 -27.607,0.032 -0.054,-1.045 -0.098,-2.077 -0.108,-3.109 2.403,-0.718 5.958,-0.175 7.285,-2.773 0.946,-3.904 0.467,-7.97 0.575,-11.939 -0.141,-7.622 0.272,-15.254 -0.228,-22.866 -0.043,-3.925 -4.946,-3.25 -7.545,-4.044 -0.109,-2.935 2.859,-2.847 4.947,-3.315 z"
   id="path206"
   inkscape:connector-curvature="0"
   style="fill:#014189;stroke:#014189;stroke-width:0.0938;stroke-miterlimit:10.43000031" />
		<g
   id="g210">
			<path
   stroke-miterlimit="10.43"
   d="m 824.726,118.287 c 6.438,-5.882 16.81,-8.188 24.552,-3.534 6.067,3.577 10.058,11.514 7.611,18.365 -10.111,1.902 -20.539,1.565 -30.792,2.403 0.25,4.502 0.816,9.231 3.436,13.047 3.774,5.948 11.624,8.699 18.343,6.807 3.023,-0.794 5.469,-2.892 8.351,-4.034 0.261,0.446 0.761,1.348 1.022,1.794 -3.718,5.567 -9.417,10.144 -16.059,11.503 -8.676,1.239 -18.104,-2.74 -22.648,-10.373 -6.917,-11.416 -3.787,-27.346 6.184,-35.978 z m 8.46,-0.185 c -4.219,2.794 -5.665,7.97 -6.579,12.657 6.382,-0.11 12.776,0.076 19.148,-0.458 0.543,-4.153 -0.392,-8.708 -3.654,-11.558 -2.348,-2.337 -6.273,-2.599 -8.915,-0.641 z"
   id="path208"
   inkscape:connector-curvature="0"
   style="fill:#014189;stroke:#014189;stroke-width:0.0938;stroke-miterlimit:10.43000031" />
		</g>
		<path
   stroke-miterlimit="10.43"
   d="m 864.402,116.438 c 6.48,-1.196 12.917,-2.62 19.268,-4.403 0,12.677 0.011,25.355 -0.011,38.044 0.054,2.403 -0.033,4.86 0.543,7.22 1.24,4.044 8.601,0.826 7.742,6.197 -9.319,0.076 -18.647,0.011 -27.966,0.032 0,-0.771 0.011,-2.326 0.022,-3.098 2.522,-0.707 6.882,-0.186 7.48,-3.599 0.664,-6.22 0.164,-12.493 0.315,-18.723 -0.152,-5.448 0.392,-10.939 -0.403,-16.332 -0.923,-2.805 -4.653,-2.142 -6.926,-2.85 -0.02,-0.617 -0.053,-1.868 -0.064,-2.488 z"
   id="path212"
   inkscape:connector-curvature="0"
   style="fill:#014189;stroke:#014189;stroke-width:0.0938;stroke-miterlimit:10.43000031" />
		<path
   stroke-miterlimit="10.43"
   d="m 555.434,114.286 c 8.145,-0.022 16.277,-0.011 24.421,-0.011 0,0.782 0.011,2.337 0.011,3.109 -2.066,0.337 -4.099,0.685 -6.133,1.077 2.925,12.776 6.786,25.312 10.08,38.001 3.371,-11.057 6.72,-22.105 10.101,-33.152 0.294,-1.489 1.066,-3.087 0.435,-4.577 -2.022,-0.74 -4.187,-0.969 -6.273,-1.359 0,-0.772 0,-2.317 0,-3.088 6.904,-0.022 13.819,-0.011 20.746,-0.011 -0.011,0.75 -0.011,2.239 -0.022,2.99 -2.664,0.675 -6.079,1.109 -7.035,4.186 -5.535,13.744 -9.438,28.085 -14.092,42.144 -4.207,0 -8.415,0.011 -12.623,0 -4.208,-13.08 -8.448,-26.149 -12.646,-39.229 -0.63,-1.849 -1.196,-3.729 -2.142,-5.438 -1.359,-1.097 -3.24,-1.108 -4.828,-1.641 0,-0.751 0,-2.251 0,-3.001 z"
   id="path214"
   inkscape:connector-curvature="0"
   style="fill:#014189;stroke:#014189;stroke-width:0.0938;stroke-miterlimit:10.43000031" />
	</g>
	<path
   stroke-miterlimit="10.43"
   d="m 54.83,280.758 c 1.883,3.09 3.3,6.503 4.088,10.036 -0.863,-0.758 -1.688,-1.561 -2.588,-2.273 -4.545,1.335 -8.97,3.225 -13.177,5.415 0.09,0.757 0.262,2.265 0.353,3.022 -2.708,-2.408 -3.202,-6.435 -4.567,-9.675 1.005,0.69 1.935,1.492 2.992,2.107 4.26,-1.448 8.535,-3.06 12.51,-5.183 0.179,-1.146 0.307,-2.294 0.389,-3.449 z"
   id="path218"
   inkscape:connector-curvature="0"
   style="fill:#014189;stroke:#014189;stroke-width:0.0938;stroke-miterlimit:10.43000031" />
	<path
   stroke-miterlimit="10.43"
   d="m 309.493,290.388 c 0.375,1.598 -0.278,3.893 1.68,4.552 3.652,1.875 7.268,3.87 11.1,5.355 0.877,-0.72 1.778,-1.41 2.745,-1.995 -1.8,4.71 -4.447,9.045 -6.517,13.643 -1.672,-0.6 -3.353,-1.252 -4.74,-2.385 1.545,-0.435 3.862,0.405 4.785,-1.32 0.81,-1.155 1.403,-2.444 2.047,-3.697 -1.853,-1.042 -3.765,-1.995 -5.662,-2.94 -0.601,1.26 -1.26,2.498 -1.665,3.84 0.314,1.042 0.765,2.041 1.14,3.075 -2.092,-0.938 -4.17,-1.913 -6.104,-3.143 1.02,-0.225 2.047,-0.39 3.082,-0.502 0.765,-1.297 1.478,-2.625 2.183,-3.96 -2.01,-1.02 -4.058,-1.973 -6.195,-2.708 -1.058,1.552 -2.175,3.15 -2.558,5.033 0.135,1.672 1.417,2.985 1.972,4.545 -1.695,-0.773 -3.143,-1.958 -4.567,-3.12 2.451,-4.748 4.649,-9.623 7.274,-14.273 z"
   id="path220"
   inkscape:connector-curvature="0"
   style="fill:#014189;stroke:#014189;stroke-width:0.0938;stroke-miterlimit:10.43000031" />
	<g
   id="g224">
		<path
   stroke-miterlimit="10.43"
   d="m 150.23,297.356 c 22.552,0 45.105,0 67.665,0 0,3.547 0,7.095 0,10.642 24.585,0 49.177,-0.007 73.762,0 -14.115,22.515 -33.967,41.835 -58.117,53.28 -8.887,4.245 -18.315,7.372 -27.99,9.232 -1.988,0.285 -3.562,1.597 -5.28,2.535 -9.84,5.572 -22.56,5.558 -32.415,0.015 -1.763,-0.975 -3.39,-2.318 -5.43,-2.632 -20.505,-3.93 -39.653,-13.763 -55.515,-27.24 -11.887,-10.013 -21.96,-22.065 -30.255,-35.19 24.525,-0.007 49.05,0 73.568,0 -0.001,-3.547 -0.001,-7.095 0.007,-10.642 z m 1.23,1.245 c 0.015,15.053 -0.03,30.112 0.022,45.165 0.022,10.388 5.438,20.528 13.987,26.4 8.385,5.917 19.643,7.447 29.303,3.998 10.462,-3.562 18.712,-12.84 21.045,-23.647 0.93,-3.945 0.795,-8.018 0.803,-12.038 -0.008,-13.29 0,-26.58 -0.008,-39.877 -21.712,-10e-4 -43.432,-10e-4 -65.152,-10e-4 z"
   id="path222"
   inkscape:connector-curvature="0"
   style="fill:#014189;stroke:#014189;stroke-width:0.0938;stroke-miterlimit:10.43000031" />
	</g>
	<g
   id="g228">
		<path
   stroke-miterlimit="10.43"
   d="m 49.212,305.058 c 1.65,-5.43 9.27,-7.598 13.613,-3.982 4.155,3.322 6.113,8.505 8.61,13.042 -1.5,-0.555 -3.015,-2.392 -4.643,-1.087 -3.638,2.01 -7.455,3.787 -10.755,6.337 0.098,0.788 0.292,2.355 0.398,3.135 -2.153,-1.987 -3.188,-4.792 -4.665,-7.252 -1.718,-3.068 -3.473,-6.585 -2.558,-10.193 z m 3.338,1.965 c -2.003,2.588 -0.473,5.85 0.967,8.28 3.968,-1.83 7.785,-3.998 11.512,-6.263 2.168,-1.11 0.33,-3.555 -0.862,-4.665 -3.584,-3.149 -9.067,-0.652 -11.617,2.648 z"
   id="path226"
   inkscape:connector-curvature="0"
   style="fill:#014189;stroke:#014189;stroke-width:0.0938;stroke-miterlimit:10.43000031" />
	</g>
	<g
   id="g232">
		<path
   stroke-miterlimit="10.43"
   d="m 166.775,307.128 c 0.817,-0.607 1.635,-1.208 2.452,-1.808 4.83,6.21 9.653,12.413 14.483,18.615 4.837,-6.217 9.667,-12.428 14.505,-18.645 0.84,0.592 1.56,1.335 2.408,1.942 -1.44,1.792 -2.858,3.608 -4.26,5.43 0.915,0.712 1.83,1.417 2.737,2.13 1.417,-1.831 2.843,-3.661 4.268,-5.483 0.907,0.705 1.808,1.41 2.722,2.123 -0.712,0.915 -1.425,1.837 -2.13,2.752 0.915,0.712 1.83,1.417 2.745,2.13 0.698,-0.907 1.387,-1.823 2.093,-2.73 0.922,0.675 1.845,1.343 2.775,2.025 -1.38,1.882 -2.812,3.735 -4.26,5.572 -1.823,-1.425 -3.645,-2.85 -5.475,-4.268 -0.712,0.908 -1.425,1.822 -2.13,2.745 1.822,1.417 3.652,2.835 5.482,4.26 -0.713,0.908 -1.425,1.822 -2.137,2.745 -3.667,-2.842 -7.32,-5.692 -10.988,-8.527 -2.137,2.752 -4.268,5.505 -6.397,8.257 3.645,4.717 7.335,9.39 10.95,14.13 1.275,-1.417 2.528,-3.067 4.448,-3.615 2.962,-0.968 6.637,0.457 7.808,3.442 1.425,3.57 0.06,7.5 -1.905,10.583 0.99,0.473 3.068,0.608 2.745,2.19 -0.472,2.062 -3.18,0.9 -4.688,1.147 -0.472,1.388 0.045,3.547 -1.657,4.17 -2.122,0.226 -1.59,-2.182 -1.77,-3.51 -3.397,1.035 -7.387,1.462 -10.485,-0.623 -2.798,-1.792 -3.42,-5.902 -1.605,-8.595 1.02,-1.688 2.88,-2.536 4.553,-3.413 -3.525,-4.47 -6.99,-8.985 -10.493,-13.462 -3.48,4.492 -6.998,8.962 -10.447,13.485 1.59,0.848 3.345,1.643 4.387,3.195 1.897,2.603 1.433,6.69 -1.23,8.61 -3.127,2.295 -7.282,1.86 -10.792,0.818 -0.203,1.177 0.51,3.135 -1.177,3.442 -2.213,0.248 -1.74,-2.783 -2.273,-4.148 -1.238,0.023 -2.49,0.166 -3.72,0.03 -1.073,-0.315 -1.327,-1.927 -0.345,-2.542 0.81,-0.293 1.635,-0.525 2.475,-0.72 -1.882,-3 -3.292,-6.712 -2.1,-10.238 0.99,-3.27 4.943,-4.935 8.07,-3.825 1.867,0.57 3.105,2.175 4.35,3.577 3.615,-4.74 7.305,-9.413 10.95,-14.13 -2.137,-2.752 -4.275,-5.505 -6.412,-8.257 -3.66,2.835 -7.32,5.685 -10.988,8.527 -0.713,-0.923 -1.425,-1.837 -2.13,-2.745 1.822,-1.425 3.652,-2.842 5.482,-4.26 -0.713,-0.915 -1.417,-1.837 -2.123,-2.745 -1.83,1.417 -3.66,2.842 -5.49,4.268 -1.417,-1.837 -2.843,-3.675 -4.26,-5.513 0.922,-0.697 1.845,-1.402 2.775,-2.092 0.705,0.915 1.41,1.837 2.123,2.76 0.915,-0.75 1.845,-1.485 2.76,-2.235 -0.728,-0.885 -1.448,-1.77 -2.167,-2.655 0.915,-0.72 1.838,-1.425 2.76,-2.138 1.417,1.83 2.835,3.652 4.252,5.483 0.915,-0.713 1.838,-1.426 2.753,-2.13 -1.435,-1.833 -2.867,-3.678 -4.277,-5.531 z m -5.558,35.1 c -0.75,3.45 1.635,6.383 2.88,9.39 3.48,0.518 7.673,2.34 10.778,-0.194 2.19,-2.416 -0.188,-5.91 -2.955,-6.413 -3.045,-0.458 -3.502,-4.23 -6.27,-5.107 -1.785,-0.668 -4.17,0.299 -4.433,2.324 z m 36.353,1.822 c -1.725,0.99 -4.027,1.23 -5.182,3.015 -1.117,1.59 -0.802,4.238 1.17,4.995 3.15,1.515 6.622,0.007 9.825,-0.51 1.23,-3.007 3.593,-5.917 2.888,-9.36 -0.248,-2.055 -2.678,-3.03 -4.47,-2.355 -2.041,0.638 -2.843,2.798 -4.231,4.215 z"
   id="path230"
   inkscape:connector-curvature="0"
   style="fill:#014189;stroke:#014189;stroke-width:0.0938;stroke-miterlimit:10.43000031" />
	</g>
	<g
   id="g236">
		<path
   stroke-miterlimit="10.43"
   d="m 292.415,320.621 c 1.403,-3.337 3.637,-6.315 6.143,-8.91 -0.09,1.485 -1.26,3.495 0.54,4.44 3.383,2.498 6.773,5.025 10.463,7.065 0.975,-0.555 1.972,-1.08 2.992,-1.575 -2.145,3.772 -4.643,7.388 -7.447,10.703 -1.508,1.875 -4.5,2.205 -6.27,0.524 -1.755,-1.297 -1.47,-3.637 -1.395,-5.542 -3.735,-0.225 -7.463,-0.015 -11.093,0.893 1.065,-1.515 2.07,-3.18 3.653,-4.23 3.202,-2.062 7.657,1.095 10.433,-1.882 -1.666,-1.245 -3.39,-2.416 -5.288,-3.278 -0.901,0.614 -1.801,1.229 -2.731,1.792 z m 7.132,5.872 c 0.128,2.085 2.213,3.623 4.208,3.615 1.785,-0.075 2.678,-1.8 3.683,-3 -2.04,-1.56 -4.14,-3.015 -6.262,-4.447 -0.601,1.237 -1.524,2.407 -1.629,3.832 z"
   id="path234"
   inkscape:connector-curvature="0"
   style="fill:#014189;stroke:#014189;stroke-width:0.0938;stroke-miterlimit:10.43000031" />
	</g>
	<path
   stroke-miterlimit="10.43"
   d="m 74.345,318.476 c 2.633,2.205 4.223,5.333 6.36,7.973 l -0.637,0.533 c -0.547,-0.331 -1.65,-1.005 -2.205,-1.343 -3.818,1.95 -7.125,4.83 -10.53,7.417 -1.508,0.743 -0.48,2.19 -0.21,3.368 -0.188,0.142 -0.562,0.435 -0.758,0.577 -1.943,-2.797 -4.177,-5.4 -5.835,-8.385 1.485,0.39 3.038,2.189 4.463,0.75 3.367,-2.415 6.938,-4.658 9.893,-7.575 -0.114,-1.118 -0.369,-2.213 -0.541,-3.315 z"
   id="path238"
   inkscape:connector-curvature="0"
   style="fill:#014189;stroke:#014189;stroke-width:0.0938;stroke-miterlimit:10.43000031" />
	<path
   stroke-miterlimit="10.43"
   d="m 78.605,336.94 c 0.435,-2.752 3.458,-4.688 6.143,-3.982 3.652,0.847 6.097,4.17 7.147,7.597 -1.118,1.515 -2.265,3.023 -3.623,4.343 0.127,-2.85 1.958,-6.442 -0.578,-8.729 -1.53,-1.59 -4.312,-0.646 -4.68,1.485 -0.337,2.887 1.86,5.453 1.538,8.37 -0.18,3.008 -3.84,4.755 -6.488,3.728 -2.917,-0.907 -4.575,-3.638 -6.03,-6.112 1.125,-1.297 2.093,-2.91 3.825,-3.473 -0.405,2.077 -1.807,4.59 -0.083,6.442 1.283,1.845 4.575,0.915 4.613,-1.365 -0.276,-2.836 -2.204,-5.386 -1.784,-8.304 z"
   id="path240"
   inkscape:connector-curvature="0"
   style="fill:#014189;stroke:#014189;stroke-width:0.0938;stroke-miterlimit:10.43000031" />
	<path
   stroke-miterlimit="10.43"
   d="m 273.552,342.491 c 2.407,-2.895 5.01,-5.64 7.845,-8.123 -0.173,1.523 -1.68,3.473 -0.075,4.71 3.037,3.127 6.292,6.038 9.427,9.06 0.75,-0.982 1.59,-1.913 2.19,-2.993 0.27,-1.53 -0.495,-3.052 -0.615,-4.567 1.47,1.373 2.85,2.85 4.192,4.357 -2.399,1.177 -4.042,3.33 -5.865,5.205 -2.062,2.242 -4.492,4.23 -5.88,7.005 -1.515,-1.26 -3.022,-2.52 -4.425,-3.9 1.335,-0.188 2.58,0.36 3.87,0.578 1.5,-0.315 2.445,-1.725 3.608,-2.618 -3.218,-3 -6.278,-6.157 -9.57,-9.067 -1.394,-1.508 -3.082,0.345 -4.702,0.353 z"
   id="path242"
   inkscape:connector-curvature="0"
   style="fill:#014189;stroke:#014189;stroke-width:0.0938;stroke-miterlimit:10.43000031" />
	<path
   stroke-miterlimit="10.43"
   d="m 93.965,349.068 c 0.75,-1.755 2.438,-2.745 3.863,-3.885 3.998,3.622 8.64,6.57 12.21,10.635 -1.41,-0.03 -3.255,-1.643 -4.343,-0.157 -2.887,3.248 -5.797,6.518 -8.175,10.17 0.517,0.953 0.922,1.95 1.222,3 -4.133,-2.88 -7.807,-6.345 -11.745,-9.473 1.035,-1.425 1.95,-3.03 3.54,-3.907 -0.188,1.32 -0.63,2.61 -0.615,3.96 1.035,1.47 2.498,2.542 3.863,3.683 1.425,-1.575 2.79,-3.203 4.125,-4.845 -1.268,-0.998 -2.558,-1.98 -3.907,-2.865 -0.562,0.345 -1.695,1.036 -2.265,1.38 0.202,-2.468 2.482,-3.945 3.862,-5.76 0.075,1.073 -0.015,2.175 0.195,3.248 0.915,1.058 2.032,1.913 3.097,2.82 1.433,-1.695 2.805,-3.45 4.058,-5.287 -1.312,-1.56 -2.738,-3.158 -4.695,-3.885 -1.493,0.111 -2.858,0.801 -4.29,1.168 z"
   id="path244"
   inkscape:connector-curvature="0"
   style="fill:#014189;stroke:#014189;stroke-width:0.0938;stroke-miterlimit:10.43000031" />
	<g
   id="g248">
		<path
   stroke-miterlimit="10.43"
   d="m 263.442,352.008 c 1.178,-2.557 3.915,-4.042 6.337,-5.242 -2.317,3.21 -0.405,6.9 0.36,10.283 0.795,3.292 1.875,6.517 2.445,9.862 -0.24,0.202 -0.728,0.607 -0.968,0.81 -4.935,-2.513 -9.532,-5.663 -14.49,-8.145 -1.335,-0.728 -2.768,0.15 -4.117,0.337 1.635,-2.7 4.657,-4.057 6.93,-6.135 0.255,0.12 0.765,0.352 1.02,0.464 -0.337,0.436 -1.012,1.298 -1.35,1.733 1.193,0.855 2.422,1.665 3.667,2.467 1.455,-1.132 2.917,-2.265 4.38,-3.397 -0.487,-1.32 -0.982,-2.632 -1.492,-3.93 -0.907,0.301 -1.814,0.601 -2.722,0.893 z m 1.306,7.245 c 1.77,1.065 3.54,2.13 5.317,3.195 -0.585,-1.98 -1.185,-3.953 -1.778,-5.917 -1.185,0.899 -2.362,1.807 -3.539,2.722 z"
   id="path246"
   inkscape:connector-curvature="0"
   style="fill:#014189;stroke:#014189;stroke-width:0.0938;stroke-miterlimit:10.43000031" />
	</g>
	<g
   id="g252">
		<path
   stroke-miterlimit="10.43"
   d="m 112.123,357.536 c 3.232,1.185 6.15,3.082 8.932,5.077 -0.682,0.053 -2.048,0.15 -2.73,0.203 -0.517,1.268 -0.637,2.647 -0.907,3.99 1.612,0.938 3.21,1.875 4.815,2.828 1.013,-0.959 2.025,-1.92 3.015,-2.902 -0.63,-0.795 -1.238,-1.598 -1.838,-2.408 2.798,0.712 5.22,2.362 7.448,4.14 -1.62,0.158 -3.472,-0.345 -4.867,0.735 -3.84,2.64 -7.485,5.55 -11.273,8.265 -0.832,0.698 -1.912,0.878 -2.955,1.02 0.645,-6.075 1.995,-12.06 2.317,-18.165 -0.683,-0.908 -1.335,-1.838 -1.957,-2.783 z m 5.032,10.95 c -0.33,2.04 -0.66,4.08 -0.982,6.127 1.613,-1.29 3.225,-2.572 4.823,-3.885 -1.284,-0.757 -2.566,-1.5 -3.841,-2.242 z"
   id="path250"
   inkscape:connector-curvature="0"
   style="fill:#014189;stroke:#014189;stroke-width:0.0938;stroke-miterlimit:10.43000031" />
	</g>
	<path
   stroke-miterlimit="10.43"
   d="m 237.2,368.516 c 2.79,-2.58 6.45,-3.953 9.817,-5.603 -0.645,1.087 -1.41,2.107 -1.972,3.248 1.792,4.462 4.41,8.542 6.615,12.802 1.095,-0.794 2.273,-1.5 3.247,-2.452 0.27,-1.357 0.188,-2.76 0.315,-4.125 1.29,1.56 2.085,3.45 2.895,5.294 -3.008,0.51 -5.528,2.273 -8.182,3.638 -2.377,1.283 -4.95,2.355 -6.825,4.38 -1.065,-1.748 -2.167,-3.495 -2.775,-5.467 1.14,0.705 2.212,1.537 3.405,2.167 1.508,0.022 2.797,-0.938 4.147,-1.5 -2.505,-4.162 -4.252,-8.805 -7.17,-12.705 -1.177,0.075 -2.347,0.18 -3.517,0.323 z"
   id="path254"
   inkscape:connector-curvature="0"
   style="fill:#014189;stroke:#014189;stroke-width:0.0938;stroke-miterlimit:10.43000031" />
	<g
   id="g258">
		<path
   stroke-miterlimit="10.43"
   d="m 132.395,368.831 c 2.587,0.698 5.805,1.732 6.517,4.695 0.915,2.453 0.3,5.91 3.098,7.215 0.667,-1.83 1.432,-3.645 1.74,-5.572 -0.743,-0.916 -1.583,-1.726 -2.355,-2.595 3.487,0.742 6.832,2.055 10.072,3.51 -1.08,0.36 -2.19,0.525 -3.33,0.502 -1.92,3.728 -3.15,7.771 -4.552,11.715 -0.938,1.695 1.072,2.843 1.77,4.155 -4.17,-1.38 -8.445,-2.655 -12.345,-4.71 -2.25,-1.118 -3.022,-4.238 -1.522,-6.263 0.96,-1.672 3.015,-1.814 4.695,-2.228 -0.721,-3.659 -1.733,-7.274 -3.788,-10.424 z m 3.75,18.629 c 0.892,0.562 1.897,0.9 2.88,1.305 0.93,-2.377 1.8,-4.77 2.64,-7.178 -1.448,-0.247 -2.94,-0.915 -4.402,-0.472 -2.303,1.013 -3.188,4.673 -1.118,6.345 z"
   id="path256"
   inkscape:connector-curvature="0"
   style="fill:#014189;stroke:#014189;stroke-width:0.0938;stroke-miterlimit:10.43000031" />
	</g>
	<path
   stroke-miterlimit="10.43"
   d="m 226.625,372.543 c 0.352,0.044 1.058,0.127 1.41,0.172 -0.84,0.6 -1.68,1.192 -2.535,1.777 1.155,4.65 2.467,9.39 4.665,13.65 0.608,0.022 1.823,0.06 2.438,0.083 0.098,0.195 0.3,0.592 0.398,0.788 -3.27,1.095 -6.488,2.385 -9.885,3.067 0.735,-1.215 2.925,-2.085 2.19,-3.772 -1.14,-3.78 -2.333,-7.567 -3.817,-11.228 -0.503,-1.552 -2.58,-0.72 -3.75,-1.185 2.691,-1.709 5.848,-2.527 8.886,-3.352 z"
   id="path260"
   inkscape:connector-curvature="0"
   style="fill:#014189;stroke:#014189;stroke-width:0.0938;stroke-miterlimit:10.43000031" />
	<g
   id="g264">
		<path
   stroke-miterlimit="10.43"
   d="m 162.245,378.243 c 3.465,0.301 6.862,1.036 10.29,1.583 -0.015,0.218 -0.045,0.637 -0.068,0.848 -0.952,0.352 -2.715,-0.038 -2.887,1.365 -0.967,4.185 -1.695,8.453 -2.107,12.728 0.728,0.915 1.613,1.68 2.415,2.542 -4.373,-0.712 -8.903,-0.998 -13.08,-2.542 -3.248,-1.2 -3.855,-5.835 -1.395,-8.092 2.542,-2.16 6.292,-2.025 9.21,-0.728 0.135,-1.792 0.855,-3.652 0.397,-5.407 -0.893,-0.812 -1.89,-1.495 -2.775,-2.297 z m -1.875,8.82 c -1.838,0.938 -2.423,3.375 -1.913,5.25 0.63,1.77 2.64,2.295 4.32,2.438 0.968,-2.422 1.058,-5.077 1.53,-7.62 -1.29,-0.15 -2.692,-0.706 -3.937,-0.068 z"
   id="path262"
   inkscape:connector-curvature="0"
   style="fill:#014189;stroke:#014189;stroke-width:0.0938;stroke-miterlimit:10.43000031" />
	</g>
	<path
   stroke-miterlimit="10.43"
   d="m 198.71,380.433 c 2.647,-2.745 6.877,-2.97 10.365,-2.003 0.682,1.748 1.335,3.51 1.762,5.348 -2.363,-1.343 -3.795,-4.493 -6.87,-4.35 -2.077,-0.022 -3.772,2.288 -2.587,4.163 1.815,2.79 5.887,1.86 8.28,3.915 2.423,1.748 1.965,5.693 -0.255,7.418 -2.347,2.047 -5.632,1.897 -8.542,1.837 -0.533,-1.695 -1.005,-3.428 -1.125,-5.206 1.74,1.328 3.067,4.036 5.633,3.653 2.265,-0.083 3.277,-3.375 1.335,-4.612 -2.438,-1.305 -5.52,-1.042 -7.71,-2.858 -2.154,-1.77 -2.236,-5.355 -0.286,-7.305 z"
   id="path266"
   inkscape:connector-curvature="0"
   style="fill:#014189;stroke:#014189;stroke-width:0.0938;stroke-miterlimit:10.43000031" />
	<path
   stroke-miterlimit="10.43"
   d="m 182.39,385.766 c 3.15,-1.62 6.99,1.83 5.895,5.145 -0.593,2.94 -4.583,4.388 -6.84,2.332 -2.49,-1.897 -1.973,-6.277 0.945,-7.477 z"
   id="path268"
   inkscape:connector-curvature="0"
   style="fill:#014189;stroke:#014189;stroke-width:0.0938;stroke-miterlimit:10.43000031" />
</g>
<g
   id="g276"
   transform="matrix(0.16420153,0,0,0.16420153,-2.8216555,-2.981752)">
	<path
   stroke-miterlimit="10.43"
   d="M 250.542,187.766"
   id="path272"
   inkscape:connector-curvature="0"
   style="fill:#1b2a98;stroke:#1b2a98;stroke-width:0.0938;stroke-miterlimit:10.43000031" />
	<path
   stroke-miterlimit="10.43"
   d="m 284.33,202.121 c 1.215,-0.428 1.643,-0.03 1.275,1.192 -1.223,0.428 -1.65,0.03 -1.275,-1.192 z"
   id="path274"
   inkscape:connector-curvature="0"
   style="fill:#1b2a98;stroke:#1b2a98;stroke-width:0.0938;stroke-miterlimit:10.43000031" />
</g>
<text
   xml:space="preserve"
   style="font-style:normal;font-weight:normal;font-size:15.63981819px;line-height:1.25;font-family:sans-serif;letter-spacing:0px;word-spacing:0px;fill:#000000;fill-opacity:1;stroke:none;stroke-width:0.39099544"
   x="59.664967"
   y="59.84169"
   id="text1092"><tspan
     sodipodi:role="line"
     id="tspan1090"
     x="59.664967"
     y="59.84169"
     style="fill:#ff0000;fill-opacity:1;stroke-width:0.39099544">agestudy.nl</tspan></text>
</svg>